<svg
  width="300"
  height="240"
  viewBox="0 0 300 240"
  fill="none"
  xmlns="http://www.w3.org/2000/svg">
  <path
    d="M0 12C0 5.37259 5.37258 0 12 0H288C294.627 0 300 5.37258 300 12V228C300 234.627 294.627 240 288 240H12C5.37259 240 0 234.627 0 228V12Z"
    fill="#913AEE" />
  <path
    d="M31.055 211V182.455H21.375V175.195H49.425V182.455H39.745V211H31.055ZM50.8305 211V183.61H57.8705L58.5305 188.395H58.6955C59.7222 186.525 60.9322 185.15 62.3255 184.27C63.7188 183.39 65.1122 182.95 66.5055 182.95C67.3122 182.95 67.9722 183.005 68.4855 183.115C68.9988 183.188 69.4388 183.317 69.8055 183.5L68.1555 190.87C67.7155 190.76 67.2938 190.687 66.8905 190.65C66.4872 190.577 65.9922 190.54 65.4055 190.54C64.3788 190.54 63.3155 190.907 62.2155 191.64C61.1155 192.337 60.2172 193.602 59.5205 195.435V211H50.8305ZM72.128 211V183.61H80.818V211H72.128ZM76.473 179.87C75.043 179.87 73.8696 179.467 72.953 178.66C72.073 177.853 71.633 176.772 71.633 175.415C71.633 174.095 72.073 173.032 72.953 172.225C73.8696 171.382 75.043 170.96 76.473 170.96C77.903 170.96 79.058 171.382 79.938 172.225C80.8546 173.032 81.313 174.095 81.313 175.415C81.313 176.772 80.8546 177.853 79.938 178.66C79.058 179.467 77.903 179.87 76.473 179.87ZM96.3417 222.495C94.2517 222.495 92.3267 222.257 90.5667 221.78C88.8067 221.303 87.4134 220.552 86.3867 219.525C85.3601 218.535 84.8467 217.233 84.8467 215.62C84.8467 214.483 85.1767 213.457 85.8367 212.54C86.5334 211.66 87.5051 210.89 88.7517 210.23V210.01C88.0551 209.497 87.4501 208.873 86.9367 208.14C86.4601 207.37 86.2217 206.435 86.2217 205.335C86.2217 204.345 86.4967 203.392 87.0467 202.475C87.6334 201.558 88.3851 200.788 89.3017 200.165V199.945C88.3117 199.285 87.4317 198.35 86.6617 197.14C85.9284 195.893 85.5617 194.482 85.5617 192.905C85.5617 190.668 86.1117 188.817 87.2117 187.35C88.3117 185.883 89.7234 184.783 91.4467 184.05C93.2067 183.317 95.0767 182.95 97.0567 182.95C97.8267 182.95 98.5784 183.005 99.3117 183.115C100.045 183.225 100.742 183.39 101.402 183.61H111.467V189.935H107.067V190.155C107.397 190.595 107.635 191.072 107.782 191.585C107.928 192.098 108.002 192.667 108.002 193.29C108.002 195.38 107.507 197.103 106.517 198.46C105.563 199.78 104.243 200.77 102.557 201.43C100.907 202.053 99.0734 202.365 97.0567 202.365C96.5801 202.365 96.0851 202.328 95.5717 202.255C95.0584 202.182 94.4901 202.053 93.8667 201.87C93.5734 202.163 93.3534 202.438 93.2067 202.695C93.0967 202.915 93.0417 203.263 93.0417 203.74C93.0417 204.363 93.3351 204.822 93.9217 205.115C94.5451 205.408 95.5717 205.555 97.0017 205.555H101.292C104.702 205.555 107.323 206.105 109.157 207.205C110.99 208.305 111.907 210.102 111.907 212.595C111.907 214.538 111.265 216.243 109.982 217.71C108.735 219.213 106.938 220.387 104.592 221.23C102.282 222.073 99.5317 222.495 96.3417 222.495ZM97.0567 197.14C97.7167 197.14 98.3034 196.993 98.8167 196.7C99.3301 196.37 99.7334 195.893 100.027 195.27C100.32 194.647 100.467 193.858 100.467 192.905C100.467 191.512 100.137 190.485 99.4767 189.825C98.8534 189.128 98.0467 188.78 97.0567 188.78C96.0667 188.78 95.2601 189.128 94.6367 189.825C94.0134 190.485 93.7017 191.512 93.7017 192.905C93.7017 193.858 93.8484 194.647 94.1417 195.27C94.4351 195.893 94.8384 196.37 95.3517 196.7C95.8651 196.993 96.4334 197.14 97.0567 197.14ZM97.7167 217.105C98.8534 217.105 99.8617 216.977 100.742 216.72C101.622 216.463 102.318 216.097 102.832 215.62C103.345 215.18 103.602 214.667 103.602 214.08C103.602 213.273 103.253 212.742 102.557 212.485C101.897 212.265 100.925 212.155 99.6417 212.155H97.1117C96.1217 212.155 95.3334 212.118 94.7467 212.045C94.1601 212.008 93.6651 211.935 93.2617 211.825C92.8217 212.228 92.4917 212.613 92.2717 212.98C92.0884 213.347 91.9967 213.75 91.9967 214.19C91.9967 215.18 92.5284 215.913 93.5917 216.39C94.6551 216.867 96.0301 217.105 97.7167 217.105ZM124.89 222.495C122.8 222.495 120.875 222.257 119.115 221.78C117.355 221.303 115.962 220.552 114.935 219.525C113.908 218.535 113.395 217.233 113.395 215.62C113.395 214.483 113.725 213.457 114.385 212.54C115.082 211.66 116.053 210.89 117.3 210.23V210.01C116.603 209.497 115.998 208.873 115.485 208.14C115.008 207.37 114.77 206.435 114.77 205.335C114.77 204.345 115.045 203.392 115.595 202.475C116.182 201.558 116.933 200.788 117.85 200.165V199.945C116.86 199.285 115.98 198.35 115.21 197.14C114.477 195.893 114.11 194.482 114.11 192.905C114.11 190.668 114.66 188.817 115.76 187.35C116.86 185.883 118.272 184.783 119.995 184.05C121.755 183.317 123.625 182.95 125.605 182.95C126.375 182.95 127.127 183.005 127.86 183.115C128.593 183.225 129.29 183.39 129.95 183.61H140.015V189.935H135.615V190.155C135.945 190.595 136.183 191.072 136.33 191.585C136.477 192.098 136.55 192.667 136.55 193.29C136.55 195.38 136.055 197.103 135.065 198.46C134.112 199.78 132.792 200.77 131.105 201.43C129.455 202.053 127.622 202.365 125.605 202.365C125.128 202.365 124.633 202.328 124.12 202.255C123.607 202.182 123.038 202.053 122.415 201.87C122.122 202.163 121.902 202.438 121.755 202.695C121.645 202.915 121.59 203.263 121.59 203.74C121.59 204.363 121.883 204.822 122.47 205.115C123.093 205.408 124.12 205.555 125.55 205.555H129.84C133.25 205.555 135.872 206.105 137.705 207.205C139.538 208.305 140.455 210.102 140.455 212.595C140.455 214.538 139.813 216.243 138.53 217.71C137.283 219.213 135.487 220.387 133.14 221.23C130.83 222.073 128.08 222.495 124.89 222.495ZM125.605 197.14C126.265 197.14 126.852 196.993 127.365 196.7C127.878 196.37 128.282 195.893 128.575 195.27C128.868 194.647 129.015 193.858 129.015 192.905C129.015 191.512 128.685 190.485 128.025 189.825C127.402 189.128 126.595 188.78 125.605 188.78C124.615 188.78 123.808 189.128 123.185 189.825C122.562 190.485 122.25 191.512 122.25 192.905C122.25 193.858 122.397 194.647 122.69 195.27C122.983 195.893 123.387 196.37 123.9 196.7C124.413 196.993 124.982 197.14 125.605 197.14ZM126.265 217.105C127.402 217.105 128.41 216.977 129.29 216.72C130.17 216.463 130.867 216.097 131.38 215.62C131.893 215.18 132.15 214.667 132.15 214.08C132.15 213.273 131.802 212.742 131.105 212.485C130.445 212.265 129.473 212.155 128.19 212.155H125.66C124.67 212.155 123.882 212.118 123.295 212.045C122.708 212.008 122.213 211.935 121.81 211.825C121.37 212.228 121.04 212.613 120.82 212.98C120.637 213.347 120.545 213.75 120.545 214.19C120.545 215.18 121.077 215.913 122.14 216.39C123.203 216.867 124.578 217.105 126.265 217.105ZM154.508 211.66C152.161 211.66 149.961 211.092 147.908 209.955C145.891 208.818 144.241 207.187 142.958 205.06C141.675 202.933 141.033 200.348 141.033 197.305C141.033 194.262 141.675 191.677 142.958 189.55C144.241 187.423 145.891 185.792 147.908 184.655C149.961 183.518 152.161 182.95 154.508 182.95C156.818 182.95 158.981 183.518 160.998 184.655C163.051 185.792 164.72 187.423 166.003 189.55C167.286 191.677 167.928 194.262 167.928 197.305C167.928 200.348 167.286 202.933 166.003 205.06C164.72 207.187 163.051 208.818 160.998 209.955C158.981 211.092 156.818 211.66 154.508 211.66ZM154.508 204.675C155.535 204.675 156.378 204.382 157.038 203.795C157.735 203.172 158.23 202.31 158.523 201.21C158.853 200.11 159.018 198.808 159.018 197.305C159.018 195.802 158.853 194.5 158.523 193.4C158.23 192.3 157.735 191.457 157.038 190.87C156.378 190.247 155.535 189.935 154.508 189.935C153.445 189.935 152.565 190.247 151.868 190.87C151.208 191.457 150.713 192.3 150.383 193.4C150.09 194.5 149.943 195.802 149.943 197.305C149.943 198.808 150.09 200.11 150.383 201.21C150.713 202.31 151.208 203.172 151.868 203.795C152.565 204.382 153.445 204.675 154.508 204.675Z"
    fill="white" />
  <ellipse cx="202.051" cy="215.571" rx="9.45506" ry="9.42857" fill="white" />
  <ellipse cx="223.253" cy="200.714" rx="11.7472" ry="11.7143" fill="white" />
  <ellipse cx="197.753" cy="186.714" rx="13.7528" ry="13.7143" fill="white" />
</svg>
