<svg
  width="215"
  height="72"
  viewBox="0 0 215 72"
  fill="none"
  xmlns="http://www.w3.org/2000/svg">
  <path
    d="M11.055 53V24.455H1.375V17.195H29.425V24.455H19.745V53H11.055ZM30.8305 53V25.61H37.8705L38.5305 30.395H38.6955C39.7222 28.525 40.9322 27.15 42.3255 26.27C43.7188 25.39 45.1122 24.95 46.5055 24.95C47.3122 24.95 47.9722 25.005 48.4855 25.115C48.9988 25.1883 49.4388 25.3167 49.8055 25.5L48.1555 32.87C47.7155 32.76 47.2938 32.6867 46.8905 32.65C46.4872 32.5767 45.9922 32.54 45.4055 32.54C44.3788 32.54 43.3155 32.9067 42.2155 33.64C41.1155 34.3367 40.2172 35.6017 39.5205 37.435V53H30.8305ZM52.128 53V25.61H60.818V53H52.128ZM56.473 21.87C55.043 21.87 53.8696 21.4667 52.953 20.66C52.073 19.8533 51.633 18.7717 51.633 17.415C51.633 16.095 52.073 15.0317 52.953 14.225C53.8696 13.3817 55.043 12.96 56.473 12.96C57.903 12.96 59.058 13.3817 59.938 14.225C60.8546 15.0317 61.313 16.095 61.313 17.415C61.313 18.7717 60.8546 19.8533 59.938 20.66C59.058 21.4667 57.903 21.87 56.473 21.87ZM76.3417 64.495C74.2517 64.495 72.3267 64.2567 70.5667 63.78C68.8067 63.3033 67.4134 62.5517 66.3867 61.525C65.3601 60.535 64.8467 59.2333 64.8467 57.62C64.8467 56.4833 65.1767 55.4567 65.8367 54.54C66.5334 53.66 67.5051 52.89 68.7517 52.23V52.01C68.0551 51.4967 67.4501 50.8733 66.9367 50.14C66.4601 49.37 66.2217 48.435 66.2217 47.335C66.2217 46.345 66.4967 45.3917 67.0467 44.475C67.6334 43.5583 68.3851 42.7883 69.3017 42.165V41.945C68.3117 41.285 67.4317 40.35 66.6617 39.14C65.9284 37.8933 65.5617 36.4817 65.5617 34.905C65.5617 32.6683 66.1117 30.8167 67.2117 29.35C68.3117 27.8833 69.7234 26.7833 71.4467 26.05C73.2067 25.3167 75.0767 24.95 77.0567 24.95C77.8267 24.95 78.5784 25.005 79.3117 25.115C80.0451 25.225 80.7417 25.39 81.4017 25.61H91.4667V31.935H87.0667V32.155C87.3967 32.595 87.6351 33.0717 87.7817 33.585C87.9284 34.0983 88.0017 34.6667 88.0017 35.29C88.0017 37.38 87.5067 39.1033 86.5167 40.46C85.5634 41.78 84.2434 42.77 82.5567 43.43C80.9067 44.0533 79.0734 44.365 77.0567 44.365C76.5801 44.365 76.0851 44.3283 75.5717 44.255C75.0584 44.1817 74.4901 44.0533 73.8667 43.87C73.5734 44.1633 73.3534 44.4383 73.2067 44.695C73.0967 44.915 73.0417 45.2633 73.0417 45.74C73.0417 46.3633 73.3351 46.8217 73.9217 47.115C74.5451 47.4083 75.5717 47.555 77.0017 47.555H81.2917C84.7017 47.555 87.3234 48.105 89.1567 49.205C90.9901 50.305 91.9067 52.1017 91.9067 54.595C91.9067 56.5383 91.2651 58.2433 89.9817 59.71C88.7351 61.2133 86.9384 62.3867 84.5917 63.23C82.2817 64.0733 79.5317 64.495 76.3417 64.495ZM77.0567 39.14C77.7167 39.14 78.3034 38.9933 78.8167 38.7C79.3301 38.37 79.7334 37.8933 80.0267 37.27C80.3201 36.6467 80.4667 35.8583 80.4667 34.905C80.4667 33.5117 80.1367 32.485 79.4767 31.825C78.8534 31.1283 78.0467 30.78 77.0567 30.78C76.0667 30.78 75.2601 31.1283 74.6367 31.825C74.0134 32.485 73.7017 33.5117 73.7017 34.905C73.7017 35.8583 73.8484 36.6467 74.1417 37.27C74.4351 37.8933 74.8384 38.37 75.3517 38.7C75.8651 38.9933 76.4334 39.14 77.0567 39.14ZM77.7167 59.105C78.8534 59.105 79.8617 58.9767 80.7417 58.72C81.6217 58.4633 82.3184 58.0967 82.8317 57.62C83.3451 57.18 83.6017 56.6667 83.6017 56.08C83.6017 55.2733 83.2534 54.7417 82.5567 54.485C81.8967 54.265 80.9251 54.155 79.6417 54.155H77.1117C76.1217 54.155 75.3334 54.1183 74.7467 54.045C74.1601 54.0083 73.6651 53.935 73.2617 53.825C72.8217 54.2283 72.4917 54.6133 72.2717 54.98C72.0884 55.3467 71.9967 55.75 71.9967 56.19C71.9967 57.18 72.5284 57.9133 73.5917 58.39C74.6551 58.8667 76.0301 59.105 77.7167 59.105ZM104.89 64.495C102.8 64.495 100.875 64.2567 99.1152 63.78C97.3552 63.3033 95.9618 62.5517 94.9352 61.525C93.9085 60.535 93.3952 59.2333 93.3952 57.62C93.3952 56.4833 93.7252 55.4567 94.3852 54.54C95.0818 53.66 96.0535 52.89 97.3002 52.23V52.01C96.6035 51.4967 95.9985 50.8733 95.4852 50.14C95.0085 49.37 94.7702 48.435 94.7702 47.335C94.7702 46.345 95.0452 45.3917 95.5952 44.475C96.1818 43.5583 96.9335 42.7883 97.8502 42.165V41.945C96.8602 41.285 95.9802 40.35 95.2102 39.14C94.4768 37.8933 94.1102 36.4817 94.1102 34.905C94.1102 32.6683 94.6602 30.8167 95.7602 29.35C96.8602 27.8833 98.2718 26.7833 99.9952 26.05C101.755 25.3167 103.625 24.95 105.605 24.95C106.375 24.95 107.127 25.005 107.86 25.115C108.593 25.225 109.29 25.39 109.95 25.61H120.015V31.935H115.615V32.155C115.945 32.595 116.183 33.0717 116.33 33.585C116.477 34.0983 116.55 34.6667 116.55 35.29C116.55 37.38 116.055 39.1033 115.065 40.46C114.112 41.78 112.792 42.77 111.105 43.43C109.455 44.0533 107.622 44.365 105.605 44.365C105.128 44.365 104.633 44.3283 104.12 44.255C103.607 44.1817 103.038 44.0533 102.415 43.87C102.122 44.1633 101.902 44.4383 101.755 44.695C101.645 44.915 101.59 45.2633 101.59 45.74C101.59 46.3633 101.883 46.8217 102.47 47.115C103.093 47.4083 104.12 47.555 105.55 47.555H109.84C113.25 47.555 115.872 48.105 117.705 49.205C119.538 50.305 120.455 52.1017 120.455 54.595C120.455 56.5383 119.813 58.2433 118.53 59.71C117.283 61.2133 115.487 62.3867 113.14 63.23C110.83 64.0733 108.08 64.495 104.89 64.495ZM105.605 39.14C106.265 39.14 106.852 38.9933 107.365 38.7C107.878 38.37 108.282 37.8933 108.575 37.27C108.868 36.6467 109.015 35.8583 109.015 34.905C109.015 33.5117 108.685 32.485 108.025 31.825C107.402 31.1283 106.595 30.78 105.605 30.78C104.615 30.78 103.808 31.1283 103.185 31.825C102.562 32.485 102.25 33.5117 102.25 34.905C102.25 35.8583 102.397 36.6467 102.69 37.27C102.983 37.8933 103.387 38.37 103.9 38.7C104.413 38.9933 104.982 39.14 105.605 39.14ZM106.265 59.105C107.402 59.105 108.41 58.9767 109.29 58.72C110.17 58.4633 110.867 58.0967 111.38 57.62C111.893 57.18 112.15 56.6667 112.15 56.08C112.15 55.2733 111.802 54.7417 111.105 54.485C110.445 54.265 109.473 54.155 108.19 54.155H105.66C104.67 54.155 103.882 54.1183 103.295 54.045C102.708 54.0083 102.213 53.935 101.81 53.825C101.37 54.2283 101.04 54.6133 100.82 54.98C100.637 55.3467 100.545 55.75 100.545 56.19C100.545 57.18 101.077 57.9133 102.14 58.39C103.203 58.8667 104.578 59.105 106.265 59.105ZM134.508 53.66C132.161 53.66 129.961 53.0917 127.908 51.955C125.891 50.8183 124.241 49.1867 122.958 47.06C121.675 44.9333 121.033 42.3483 121.033 39.305C121.033 36.2617 121.675 33.6767 122.958 31.55C124.241 29.4233 125.891 27.7917 127.908 26.655C129.961 25.5183 132.161 24.95 134.508 24.95C136.818 24.95 138.981 25.5183 140.998 26.655C143.051 27.7917 144.72 29.4233 146.003 31.55C147.286 33.6767 147.928 36.2617 147.928 39.305C147.928 42.3483 147.286 44.9333 146.003 47.06C144.72 49.1867 143.051 50.8183 140.998 51.955C138.981 53.0917 136.818 53.66 134.508 53.66ZM134.508 46.675C135.535 46.675 136.378 46.3817 137.038 45.795C137.735 45.1717 138.23 44.31 138.523 43.21C138.853 42.11 139.018 40.8083 139.018 39.305C139.018 37.8017 138.853 36.5 138.523 35.4C138.23 34.3 137.735 33.4567 137.038 32.87C136.378 32.2467 135.535 31.935 134.508 31.935C133.445 31.935 132.565 32.2467 131.868 32.87C131.208 33.4567 130.713 34.3 130.383 35.4C130.09 36.5 129.943 37.8017 129.943 39.305C129.943 40.8083 130.09 42.11 130.383 43.21C130.713 44.31 131.208 45.1717 131.868 45.795C132.565 46.3817 133.445 46.675 134.508 46.675Z"
    fill="#3E244A" />
  <ellipse cx="182.051" cy="57.5714" rx="9.45506" ry="9.42857" fill="#913AEE" />
  <ellipse cx="203.253" cy="42.7143" rx="11.7472" ry="11.7143" fill="#913AEE" />
  <ellipse cx="177.753" cy="28.7143" rx="13.7528" ry="13.7143" fill="#913AEE" />
</svg>
