<svg width="24" height="25" viewBox="0 0 24 25" fill="none" xmlns="http://www.w3.org/2000/svg">
<path fill-rule="evenodd" clip-rule="evenodd" d="M2.25 4.51855C2.25 4.10434 2.58579 3.76855 3 3.76855H17.25C17.6642 3.76855 18 4.10434 18 4.51855C18 4.93277 17.6642 5.26855 17.25 5.26855H3C2.58579 5.26855 2.25 4.93277 2.25 4.51855ZM2.25 9.01855C2.25 8.60434 2.58579 8.26855 3 8.26855H12.75C13.1642 8.26855 13.5 8.60434 13.5 9.01855C13.5 9.43277 13.1642 9.76855 12.75 9.76855H3C2.58579 9.76855 2.25 9.43277 2.25 9.01855ZM17.25 8.26855C17.6642 8.26855 18 8.60434 18 9.01855V19.2079L20.4697 16.7382C20.7626 16.4453 21.2374 16.4453 21.5303 16.7382C21.8232 17.0311 21.8232 17.506 21.5303 17.7989L17.7803 21.5489C17.4874 21.8418 17.0126 21.8418 16.7197 21.5489L12.9697 17.7989C12.6768 17.506 12.6768 17.0311 12.9697 16.7382C13.2626 16.4453 13.7374 16.4453 14.0303 16.7382L16.5 19.2079V9.01855C16.5 8.60434 16.8358 8.26855 17.25 8.26855ZM2.25 13.5186C2.25 13.1043 2.58579 12.7686 3 12.7686H12.75C13.1642 12.7686 13.5 13.1043 13.5 13.5186C13.5 13.9328 13.1642 14.2686 12.75 14.2686H3C2.58579 14.2686 2.25 13.9328 2.25 13.5186Z" fill="black"/>
</svg>
