<svg width="24" height="24" viewBox="0 0 24 24" fill="none" xmlns="http://www.w3.org/2000/svg">
<path fill-rule="evenodd" clip-rule="evenodd" d="M8.47762 1.60312C8.83616 1.81053 8.95868 2.26932 8.75128 2.62787C8.55271 2.97113 8.40712 3.34856 8.32551 3.74942C8.38406 3.80689 8.44396 3.863 8.50514 3.91769C9.32957 2.90245 10.5885 2.25232 12.0002 2.25232C13.4129 2.25232 14.6728 2.90349 15.4972 3.92014C15.5579 3.86597 15.6173 3.8104 15.6754 3.75349C15.594 3.35111 15.4481 2.97229 15.2488 2.62787C15.0414 2.26932 15.1639 1.81053 15.5225 1.60312C15.881 1.39571 16.3398 1.51823 16.5472 1.87678C16.9024 2.49074 17.137 3.18367 17.2183 3.92226C17.2416 4.13417 17.1737 4.346 17.0314 4.50479C16.7896 4.77473 16.5263 5.02509 16.2442 5.25322C16.41 5.72269 16.5002 6.22751 16.5002 6.75232C16.5002 6.95588 16.4866 7.15666 16.4602 7.35373C16.3543 8.14546 15.7073 8.64812 15.0428 8.75658C14.8614 8.7862 14.6791 8.81321 14.496 8.83758C14.6477 9.0647 14.7692 9.31369 14.8549 9.57884C16.1695 9.41793 17.4498 9.14733 18.6867 8.77654C18.6212 7.88324 18.5053 7.00416 18.3417 6.1421C18.2645 5.73514 18.5319 5.34266 18.9388 5.26546C19.3458 5.18827 19.7383 5.45559 19.8155 5.86254C20.0269 6.97737 20.1636 8.11841 20.2201 9.28018C20.2365 9.6176 20.0254 9.92435 19.7043 10.0294C18.1774 10.5291 16.5854 10.8843 14.9444 11.0789C14.8703 11.4597 14.7242 11.8147 14.5208 12.1292C16.5869 12.3383 18.5788 12.8016 20.464 13.4876C20.7756 13.601 20.9758 13.9056 20.9562 14.2367C20.8278 16.4064 20.4197 18.5017 19.7674 20.4865C19.638 20.88 19.2142 21.0942 18.8207 20.9648C18.4272 20.8355 18.213 20.4116 18.3424 20.0181C18.8983 18.3268 19.2654 16.5495 19.4187 14.7108C18.9182 14.5424 18.4101 14.3906 17.895 14.256C17.9627 14.4906 17.9993 14.7403 17.9993 15.0023C17.9993 18.9581 15.4775 22.5023 11.9993 22.5023C8.52108 22.5023 5.99928 18.9581 5.99928 15.0023C5.99928 14.7405 6.03584 14.4909 6.10348 14.2564C5.58888 14.3909 5.08127 14.5426 4.58128 14.7108C4.73457 16.5495 5.10172 18.3268 5.65763 20.0181C5.78697 20.4116 5.57282 20.8355 5.17932 20.9648C4.78582 21.0942 4.36197 20.88 4.23263 20.4865C3.58026 18.5017 3.17221 16.4064 3.0438 14.2367C3.02421 13.9056 3.22437 13.601 3.53602 13.4876C5.12188 12.9105 6.78302 12.491 8.50042 12.2479C8.50368 12.2474 8.50694 12.247 8.5102 12.2465C8.83115 12.2012 9.15404 12.162 9.47876 12.1292C9.27538 11.8147 9.12926 11.4596 9.05515 11.0789C7.4142 10.8843 5.82214 10.5291 4.29529 10.0294C3.97423 9.92435 3.76304 9.6176 3.77946 9.28018C3.83598 8.11841 3.97265 6.97737 4.18412 5.86254C4.26132 5.45559 4.6538 5.18827 5.06076 5.26546C5.46772 5.34266 5.73504 5.73514 5.65784 6.1421C5.49432 7.00416 5.37836 7.88324 5.31284 8.77654C6.54977 9.14734 7.83017 9.41793 9.14473 9.57885C9.23046 9.31366 9.35209 9.06464 9.50389 8.83752C9.32092 8.81317 9.13878 8.78618 8.95749 8.75658C8.29303 8.64812 7.64601 8.14547 7.54009 7.35373C7.51373 7.15666 7.50016 6.95588 7.50016 6.75232C7.50016 6.2264 7.59068 5.72055 7.75718 5.25023C7.47455 5.02134 7.21083 4.77011 6.96868 4.49923C6.8266 4.34028 6.75887 4.12838 6.78244 3.91649C6.86433 3.18005 7.09864 2.48914 7.45287 1.87678C7.66028 1.51823 8.11907 1.39571 8.47762 1.60312Z" fill="black"/>
</svg>
