<svg width="14" height="14" viewBox="0 0 14 14" fill="none" xmlns="http://www.w3.org/2000/svg">
<path d="M4.75 6.5C4.75 6.5663 4.72366 6.62989 4.67678 6.67678C4.62989 6.72366 4.5663 6.75 4.5 6.75C4.4337 6.75 4.37011 6.72366 4.32322 6.67678C4.27634 6.62989 4.25 6.5663 4.25 6.5C4.25 6.4337 4.27634 6.37011 4.32322 6.32322C4.37011 6.27634 4.4337 6.25 4.5 6.25C4.5663 6.25 4.62989 6.27634 4.67678 6.32322C4.72366 6.37011 4.75 6.4337 4.75 6.5ZM4.75 6.5H4.5M7.25 6.5C7.25 6.5663 7.22366 6.62989 7.17678 6.67678C7.12989 6.72366 7.0663 6.75 7 6.75C6.9337 6.75 6.87011 6.72366 6.82322 6.67678C6.77634 6.62989 6.75 6.5663 6.75 6.5C6.75 6.4337 6.77634 6.37011 6.82322 6.32322C6.87011 6.27634 6.9337 6.25 7 6.25C7.0663 6.25 7.12989 6.27634 7.17678 6.32322C7.22366 6.37011 7.25 6.4337 7.25 6.5ZM7.25 6.5H7M9.75 6.5C9.75 6.5663 9.72366 6.62989 9.67678 6.67678C9.62989 6.72366 9.5663 6.75 9.5 6.75C9.4337 6.75 9.37011 6.72366 9.32322 6.67678C9.27634 6.62989 9.25 6.5663 9.25 6.5C9.25 6.4337 9.27634 6.37011 9.32322 6.32322C9.37011 6.27634 9.4337 6.25 9.5 6.25C9.5663 6.25 9.62989 6.27634 9.67678 6.32322C9.72366 6.37011 9.75 6.4337 9.75 6.5ZM9.75 6.5H9.5M13 6.5C13 9.53733 10.3133 12 7 12C6.42479 12.0007 5.85202 11.9252 5.29667 11.7753C4.51384 12.3259 3.55888 12.5761 2.60667 12.48C2.5008 12.4698 2.39538 12.4553 2.29067 12.4367C2.61924 12.0494 2.84365 11.5848 2.94267 11.0867C3.00267 10.782 2.854 10.486 2.63133 10.2693C1.62 9.28533 1 7.95933 1 6.5C1 3.46267 3.68667 1 7 1C10.3133 1 13 3.46267 13 6.5Z" stroke="white" stroke-width="1.5" stroke-linecap="round" stroke-linejoin="round"/>
</svg>
