<svg width="35" height="33" viewBox="0 0 35 33" fill="none" xmlns="http://www.w3.org/2000/svg">
<path fill-rule="evenodd" clip-rule="evenodd" d="M35 21.875V4.375C35 3.21468 34.5391 2.10188 33.7186 1.28141C32.8981 0.460936 31.7853 0 30.625 0H4.375C3.21468 0 2.10188 0.460936 1.28141 1.28141C0.460936 2.10188 0 3.21468 0 4.375V21.875C0 23.0353 0.460936 24.1481 1.28141 24.9686C2.10188 25.7891 3.21468 26.25 4.375 26.25H10.9375L17.5 32.8125L24.0625 26.25H30.625C31.7853 26.25 32.8981 25.7891 33.7186 24.9686C34.5391 24.1481 35 23.0353 35 21.875ZM6.5625 8.75C6.5625 8.16984 6.79297 7.61344 7.2032 7.2032C7.61344 6.79297 8.16984 6.5625 8.75 6.5625H26.25C26.8302 6.5625 27.3866 6.79297 27.7968 7.2032C28.207 7.61344 28.4375 8.16984 28.4375 8.75C28.4375 9.33016 28.207 9.88656 27.7968 10.2968C27.3866 10.707 26.8302 10.9375 26.25 10.9375H8.75C8.16984 10.9375 7.61344 10.707 7.2032 10.2968C6.79297 9.88656 6.5625 9.33016 6.5625 8.75ZM8.75 15.3125C8.16984 15.3125 7.61344 15.543 7.2032 15.9532C6.79297 16.3634 6.5625 16.9198 6.5625 17.5C6.5625 18.0802 6.79297 18.6366 7.2032 19.0468C7.61344 19.457 8.16984 19.6875 8.75 19.6875H15.3125C15.8927 19.6875 16.4491 19.457 16.8593 19.0468C17.2695 18.6366 17.5 18.0802 17.5 17.5C17.5 16.9198 17.2695 16.3634 16.8593 15.9532C16.4491 15.543 15.8927 15.3125 15.3125 15.3125H8.75Z" fill="white"/>
</svg>
