<svg width="18" height="17" viewBox="0 0 18 17" fill="none" xmlns="http://www.w3.org/2000/svg">
<path d="M15.7692 5.52185C16.4946 5.75487 17 6.44739 17 7.24246V10.7592C17 11.6913 16.305 12.4823 15.3754 12.5586C15.0964 12.5807 14.8174 12.6012 14.5385 12.6176V15.1538L12.0769 12.6923C10.9659 12.6923 9.86646 12.6472 8.77846 12.5586C8.54161 12.5394 8.3112 12.4718 8.10154 12.36M15.7692 5.52185C15.6424 5.48104 15.5114 5.45489 15.3787 5.4439C13.1813 5.26148 10.9726 5.26148 8.77518 5.4439C7.84718 5.52103 7.15385 6.31118 7.15385 7.24246V10.7592C7.15385 11.4459 7.53128 12.0556 8.10154 12.36M15.7692 5.52185V3.98421C15.7692 2.65416 14.824 1.50133 13.5046 1.32985C11.8068 1.10978 10.0966 0.999601 8.38462 1C6.64923 1 4.9401 1.11241 3.26462 1.32985C1.94523 1.50133 1 2.65416 1 3.98421V9.09272C1 10.4228 1.94523 11.5756 3.26462 11.7471C3.73805 11.8086 4.21395 11.8619 4.69231 11.9063V15.7692L8.10154 12.36" stroke="#000000" stroke-opacity="0.5" stroke-width="1.5" stroke-linecap="round" stroke-linejoin="round"/>
</svg>
