<svg width="24" height="24" viewBox="0 0 24 24" fill="none" xmlns="http://www.w3.org/2000/svg">
<path fill-rule="evenodd" clip-rule="evenodd" d="M10.5 6.00232C10.5 5.17389 11.1716 4.50232 12 4.50232C12.8284 4.50232 13.5 5.17389 13.5 6.00232C13.5 6.83075 12.8284 7.50232 12 7.50232C11.1716 7.50232 10.5 6.83075 10.5 6.00232ZM10.5 12.0023C10.5 11.1739 11.1716 10.5023 12 10.5023C12.8284 10.5023 13.5 11.1739 13.5 12.0023C13.5 12.8307 12.8284 13.5023 12 13.5023C11.1716 13.5023 10.5 12.8307 10.5 12.0023ZM10.5 18.0023C10.5 17.1739 11.1716 16.5023 12 16.5023C12.8284 16.5023 13.5 17.1739 13.5 18.0023C13.5 18.8307 12.8284 19.5023 12 19.5023C11.1716 19.5023 10.5 18.8307 10.5 18.0023Z" fill="black"/>
</svg>
