<svg width="24" height="24" viewBox="0 0 24 24" fill="none" xmlns="http://www.w3.org/2000/svg">
<path fill-rule="evenodd" clip-rule="evenodd" d="M9.40123 3.00572C10.5557 1.00461 13.4439 1.0046 14.5983 3.00572L21.9527 15.7532C23.1065 17.7532 21.6631 20.2524 19.3541 20.2524H4.64546C2.33649 20.2524 0.893061 17.7532 2.04691 15.7532L9.40123 3.00572ZM12 8.25232C12.4142 8.25232 12.75 8.58811 12.75 9.00232V12.7523C12.75 13.1665 12.4142 13.5023 12 13.5023C11.5858 13.5023 11.25 13.1665 11.25 12.7523V9.00232C11.25 8.58811 11.5858 8.25232 12 8.25232ZM12 16.5023C12.4142 16.5023 12.75 16.1665 12.75 15.7523C12.75 15.3381 12.4142 15.0023 12 15.0023C11.5858 15.0023 11.25 15.3381 11.25 15.7523C11.25 16.1665 11.5858 16.5023 12 16.5023Z" fill="black"/>
</svg>
