<svg width="24" height="24" viewBox="0 0 24 24" fill="none" xmlns="http://www.w3.org/2000/svg">
<path fill-rule="evenodd" clip-rule="evenodd" d="M2.25 12.0023C2.25 6.61754 6.61522 2.25232 12 2.25232C17.3848 2.25232 21.75 6.61754 21.75 12.0023C21.75 17.3871 17.3848 21.7523 12 21.7523C6.61522 21.7523 2.25 17.3871 2.25 12.0023ZM12 8.25232C12.4142 8.25232 12.75 8.58811 12.75 9.00232V12.7523C12.75 13.1665 12.4142 13.5023 12 13.5023C11.5858 13.5023 11.25 13.1665 11.25 12.7523V9.00232C11.25 8.58811 11.5858 8.25232 12 8.25232ZM12 16.5023C12.4142 16.5023 12.75 16.1665 12.75 15.7523C12.75 15.3381 12.4142 15.0023 12 15.0023C11.5858 15.0023 11.25 15.3381 11.25 15.7523C11.25 16.1665 11.5858 16.5023 12 16.5023Z" fill="black"/>
</svg>
