<svg width="24" height="24" viewBox="0 0 24 24" fill="none" xmlns="http://www.w3.org/2000/svg">
<path fill-rule="evenodd" clip-rule="evenodd" d="M12 3.75464C10.6231 3.75464 9.34467 4.16607 8.27803 4.87252C7.93269 5.10125 7.46733 5.00671 7.2386 4.66137C7.00988 4.31604 7.10441 3.85067 7.44975 3.62194C8.75441 2.75784 10.3196 2.25464 12 2.25464C16.5563 2.25464 20.25 5.94829 20.25 10.5046C20.25 13.5199 19.6759 16.4029 18.6299 19.0489C18.4776 19.4341 18.0419 19.6229 17.6567 19.4706C17.2714 19.3183 17.0826 18.8826 17.2349 18.4974C18.2127 16.0242 18.75 13.3282 18.75 10.5046C18.75 6.77672 15.7279 3.75464 12 3.75464ZM6.15671 5.74326C6.50205 5.97199 6.59658 6.43736 6.36786 6.78269C5.6614 7.84933 5.24998 9.1278 5.24998 10.5046C5.24998 12.1178 4.78653 13.6251 3.98459 14.8976C3.76375 15.248 3.30065 15.3531 2.95021 15.1323C2.59978 14.9114 2.49472 14.4483 2.71556 14.0979C3.37092 13.0579 3.74998 11.8268 3.74998 10.5046C3.74998 8.82423 4.25318 7.25907 5.11728 5.95441C5.34601 5.60907 5.81137 5.51454 6.15671 5.74326ZM12 7.50464C10.3431 7.50464 8.99998 8.84778 8.99998 10.5046C8.99998 13.6044 7.82401 16.4312 5.89462 18.5603C5.61647 18.8672 5.14217 18.8905 4.83524 18.6124C4.5283 18.3342 4.50497 17.8599 4.78312 17.553C6.47217 15.6892 7.49998 13.2179 7.49998 10.5046C7.49998 8.01936 9.5147 6.00464 12 6.00464C14.4853 6.00464 16.5 8.01936 16.5 10.5046C16.5 11.0519 16.4777 11.5943 16.4334 12.131C16.3993 12.5438 16.037 12.8508 15.6242 12.8167C15.2114 12.7826 14.9044 12.4203 14.9385 12.0075C14.9794 11.5124 15 11.0112 15 10.5046C15 8.84778 13.6568 7.50464 12 7.50464ZM12.0003 9.75464C12.4145 9.75464 12.7503 10.0904 12.7503 10.5046C12.7503 14.4128 11.3259 17.9902 8.96884 20.743C8.69945 21.0577 8.22599 21.0944 7.91135 20.825C7.59671 20.5556 7.56004 20.0821 7.82943 19.7675C9.96257 17.2761 11.2503 14.0417 11.2503 10.5046C11.2503 10.0904 11.5861 9.75464 12.0003 9.75464ZM15.2387 14.9377C15.637 15.0513 15.8678 15.4664 15.7542 15.8647C15.1843 17.8622 14.3041 19.7286 13.1693 21.4081C12.9374 21.7513 12.4712 21.8416 12.128 21.6097C11.7848 21.3778 11.6945 20.9116 11.9264 20.5684C12.974 19.0178 13.7861 17.2957 14.3117 15.4532C14.4254 15.0549 14.8404 14.8241 15.2387 14.9377Z" fill="black"/>
</svg>
