<svg width="24" height="24" viewBox="0 0 24 24" fill="none" xmlns="http://www.w3.org/2000/svg">
<g clip-path="url(#clip0_1735_3432)">
<path d="M10.5 1.88193C10.5 1.26061 11.0037 0.756927 11.625 0.756927C12.2463 0.756927 12.75 1.26061 12.75 1.88193V10.1008C13.2674 10.263 13.7708 10.4826 14.25 10.7596V3.38193C14.25 2.76061 14.7537 2.25693 15.375 2.25693C15.9963 2.25693 16.5 2.76061 16.5 3.38193V14.3191C15.0821 14.557 13.8891 15.4579 13.2506 16.6921C14.4554 16.0935 15.8134 15.7569 17.25 15.7569C17.6642 15.7569 18 15.4211 18 15.0069V12.7569L18 12.7406C18.0042 11.884 18.3339 11.025 18.9885 10.3704C19.4278 9.93109 20.1402 9.93109 20.5795 10.3704C21.0188 10.8098 21.0188 11.5221 20.5795 11.9614C20.361 12.1799 20.2514 12.4637 20.25 12.7514L20.25 12.7569L20.25 15.7569H20.2454C20.1863 17.2627 19.5623 18.6946 18.4926 19.7643L16.7574 21.4996C15.6321 22.6248 14.106 23.2569 12.5147 23.2569H10.5C6.35786 23.2569 3 19.8991 3 15.7569V6.38193C3 5.76061 3.50368 5.25693 4.125 5.25693C4.74632 5.25693 5.25 5.76061 5.25 6.38193V11.9008C5.71078 11.449 6.2154 11.0686 6.75 10.7596V3.38193C6.75 2.76061 7.25368 2.25693 7.875 2.25693C8.49632 2.25693 9 2.76061 9 3.38193V9.90762C9.49455 9.80716 9.99728 9.75693 10.5 9.75693V1.88193Z" fill="black"/>
</g>
<defs>
<clipPath id="clip0_1735_3432">
<rect width="24" height="24" fill="white" transform="translate(0 0.00692749)"/>
</clipPath>
</defs>
</svg>
