<svg width="24" height="24" viewBox="0 0 24 24" fill="none" xmlns="http://www.w3.org/2000/svg">
<path d="M15.7303 5.50693L16.7647 5.50693C17.5455 6.69035 18 8.10807 18 9.63193C18 11.1558 17.5455 12.5735 16.7647 13.7569L16.6174 13.7569C15.8111 13.7569 15.0835 14.2028 14.5859 14.8373C13.8127 15.8231 12.8383 16.6435 11.7245 17.2367C11.0023 17.6213 10.3757 18.1926 10.0719 18.9523C9.85924 19.4838 9.75 20.0511 9.75 20.6236V21.2569C9.75 21.6711 9.41421 22.0069 9 22.0069C7.75736 22.0069 6.75 20.9996 6.75 19.7569C6.75 18.6053 7.00956 17.5143 7.47337 16.5392C7.73896 15.9809 7.36638 15.2569 6.74809 15.2569L3.62227 15.2569C2.59564 15.2569 1.6767 14.5629 1.56801 13.5421C1.52306 13.1198 1.5 12.6911 1.5 12.2569C1.5 9.40931 2.49188 6.79335 4.149 4.73571C4.5366 4.25441 5.13581 4.00693 5.75377 4.00693L9.76975 4.00693C10.2534 4.00693 10.7339 4.0849 11.1928 4.23785L14.3072 5.27601C14.7661 5.42895 15.2466 5.50693 15.7303 5.50693Z" fill="black"/>
<path d="M21.6685 14.0298C22.2052 12.668 22.5 11.1844 22.5 9.63193C22.5 8.41185 22.3179 7.2343 21.9794 6.12497C21.7201 5.27495 20.8958 4.75693 20.0071 4.75693L19.0993 4.75693C18.6538 4.75693 18.3786 5.2552 18.5758 5.65473C19.1675 6.85401 19.5 8.20414 19.5 9.63193C19.5 11.3401 19.0241 12.9371 18.1977 14.2977C17.9527 14.701 18.226 15.2569 18.6979 15.2569H19.7506C20.5827 15.2569 21.3635 14.8039 21.6685 14.0298Z" fill="black"/>
</svg>
