<svg width="24" height="24" viewBox="0 0 24 24" fill="none" xmlns="http://www.w3.org/2000/svg">
<path fill-rule="evenodd" clip-rule="evenodd" d="M11.0974 1.52149C11.5035 1.60273 11.767 1.99784 11.6857 2.40401L10.6651 7.50693H15.1351L16.2146 2.10984C16.2958 1.70367 16.6909 1.44026 17.0971 1.52149C17.5033 1.60273 17.7667 1.99784 17.6854 2.40401L16.6649 7.50693H20.25C20.6642 7.50693 21 7.84271 21 8.25693C21 8.67114 20.6642 9.00693 20.25 9.00693H16.3649L15.1649 15.0069H18.75C19.1642 15.0069 19.5 15.3427 19.5 15.7569C19.5 16.1711 19.1642 16.5069 18.75 16.5069H14.8649L13.7854 21.904C13.7042 22.3102 13.3091 22.5736 12.9029 22.4924C12.4967 22.4111 12.2333 22.016 12.3146 21.6098L13.3351 16.5069H8.86515L7.78573 21.904C7.70449 22.3102 7.30938 22.5736 6.90321 22.4924C6.49704 22.4111 6.23362 22.016 6.31486 21.6098L7.33544 16.5069H3.75C3.33579 16.5069 3 16.1711 3 15.7569C3 15.3427 3.33579 15.0069 3.75 15.0069H7.63544L8.83544 9.00693H5.25C4.83579 9.00693 4.5 8.67114 4.5 8.25693C4.5 7.84271 4.83579 7.50693 5.25 7.50693H9.13544L10.2149 2.10984C10.2961 1.70367 10.6912 1.44026 11.0974 1.52149ZM10.3651 9.00693L9.16515 15.0069H13.6351L14.8351 9.00693H10.3651Z" fill="black"/>
</svg>
