<svg width="24" height="24" viewBox="0 0 24 24" fill="none" xmlns="http://www.w3.org/2000/svg">
<path d="M11.645 20.9176L11.6384 20.9141L11.6158 20.9018C11.5965 20.8913 11.5689 20.8762 11.5336 20.8565C11.4629 20.8171 11.3612 20.7593 11.233 20.6839C10.9765 20.533 10.6132 20.3108 10.1785 20.0219C9.31074 19.445 8.15122 18.597 6.9886 17.5132C4.68781 15.3685 2.25 12.182 2.25 8.25693C2.25 5.32887 4.7136 3.00693 7.6875 3.00693C9.43638 3.00693 11.0023 3.80602 12 5.05852C12.9977 3.80602 14.5636 3.00693 16.3125 3.00693C19.2864 3.00693 21.75 5.32887 21.75 8.25693C21.75 12.182 19.3122 15.3685 17.0114 17.5132C15.8488 18.597 14.6893 19.445 13.8215 20.0219C13.3868 20.3108 13.0235 20.533 12.767 20.6839C12.6388 20.7593 12.5371 20.8171 12.4664 20.8565C12.4311 20.8762 12.4035 20.8913 12.3842 20.9018L12.3616 20.9141L12.355 20.9176L12.3523 20.9191C12.1323 21.0359 11.8677 21.0359 11.6477 20.9191L11.645 20.9176Z" fill="black"/>
</svg>
