<svg width="24" height="24" viewBox="0 0 24 24" fill="none" xmlns="http://www.w3.org/2000/svg">
<path fill-rule="evenodd" clip-rule="evenodd" d="M4.5 3.75696C2.84315 3.75696 1.5 5.1001 1.5 6.75696V17.257C1.5 18.9138 2.84315 20.257 4.5 20.257H19.5C21.1569 20.257 22.5 18.9138 22.5 17.257V6.75696C22.5 5.1001 21.1569 3.75696 19.5 3.75696H4.5ZM8.625 6.75696C7.38236 6.75696 6.375 7.76432 6.375 9.00696C6.375 10.2496 7.38236 11.257 8.625 11.257C9.86764 11.257 10.875 10.2496 10.875 9.00696C10.875 7.76432 9.86764 6.75696 8.625 6.75696ZM4.75191 15.4597C5.3309 13.8834 6.84542 12.757 8.62496 12.757C10.4045 12.757 11.919 13.8834 12.498 15.4597C12.6271 15.8113 12.4771 16.2042 12.1466 16.3803C11.0958 16.94 9.89627 17.257 8.62496 17.257C7.35364 17.257 6.15413 16.94 5.10331 16.3803C4.77278 16.2042 4.62279 15.8113 4.75191 15.4597ZM15 8.25696C14.5858 8.25696 14.25 8.59274 14.25 9.00696C14.25 9.42117 14.5858 9.75696 15 9.75696H18.75C19.1642 9.75696 19.5 9.42117 19.5 9.00696C19.5 8.59274 19.1642 8.25696 18.75 8.25696H15ZM14.25 12.007C14.25 11.5927 14.5858 11.257 15 11.257H18.75C19.1642 11.257 19.5 11.5927 19.5 12.007C19.5 12.4212 19.1642 12.757 18.75 12.757H15C14.5858 12.757 14.25 12.4212 14.25 12.007ZM15 14.257C14.5858 14.257 14.25 14.5927 14.25 15.007C14.25 15.4212 14.5858 15.757 15 15.757H18.75C19.1642 15.757 19.5 15.4212 19.5 15.007C19.5 14.5927 19.1642 14.257 18.75 14.257H15Z" fill="black"/>
</svg>
