<svg width="24" height="24" viewBox="0 0 24 24" fill="none" xmlns="http://www.w3.org/2000/svg">
<path fill-rule="evenodd" clip-rule="evenodd" d="M6.91179 3.00696C5.59478 3.00696 4.43177 3.86593 4.04446 5.1247L1.63266 12.963C1.54472 13.2489 1.5 13.5462 1.5 13.8453V18.007C1.5 19.6638 2.84315 21.007 4.5 21.007H19.5C21.1569 21.007 22.5 19.6638 22.5 18.007V13.8453C22.5 13.5462 22.4553 13.2489 22.3673 12.963L19.9555 5.1247C19.5682 3.86593 18.4052 3.00696 17.0882 3.00696H6.91179ZM20.7345 12.757L18.5219 5.56583C18.3282 4.93644 17.7467 4.50696 17.0882 4.50696H6.91179C6.25329 4.50696 5.67178 4.93644 5.47812 5.56583L3.26547 12.757H6.10942C7.24574 12.757 8.28453 13.399 8.79271 14.4153L9.04894 14.9278C9.30302 15.436 9.82242 15.757 10.3906 15.757H13.6094C14.1776 15.757 14.697 15.436 14.9511 14.9278L15.2073 14.4153C15.7155 13.399 16.7543 12.757 17.8906 12.757H20.7345Z" fill="black"/>
</svg>
