<svg width="24" height="24" viewBox="0 0 24 24" fill="none" xmlns="http://www.w3.org/2000/svg">
    <path fill-rule="evenodd" clip-rule="evenodd"
        d="M5.47812 5.56583C5.67178 4.93644 6.25329 4.50696 6.91179 4.50696H9C9.41421 4.50696 9.75 4.17117 9.75 3.75696C9.75 3.34274 9.41421 3.00696 9 3.00696H6.91179C5.59478 3.00696 4.43177 3.86593 4.04446 5.1247L1.63266 12.963C1.54472 13.2489 1.5 13.5462 1.5 13.8453V18.007C1.5 19.6638 2.84315 21.007 4.5 21.007H19.5C21.1569 21.007 22.5 19.6638 22.5 18.007V13.8453C22.5 13.5462 22.4553 13.2489 22.3673 12.963L19.9555 5.1247C19.5682 3.86593 18.4052 3.00696 17.0882 3.00696H15C14.5858 3.00696 14.25 3.34274 14.25 3.75696C14.25 4.17117 14.5858 4.50696 15 4.50696H17.0882C17.7467 4.50696 18.3282 4.93644 18.5219 5.56583L20.7345 12.757H17.8906C16.7543 12.757 15.7155 13.399 15.2073 14.4153L14.9511 14.9278C14.697 15.436 14.1776 15.757 13.6094 15.757H10.3906C9.82242 15.757 9.30302 15.436 9.04894 14.9278L8.79271 14.4153C8.28453 13.399 7.24574 12.757 6.10942 12.757H3.26547L5.47812 5.56583Z"
        fill="black" />
    <path fill-rule="evenodd" clip-rule="evenodd"
        d="M12 2.25696C12.4142 2.25696 12.75 2.59274 12.75 3.00696V9.4463L14.4697 7.72663C14.7626 7.43373 15.2374 7.43373 15.5303 7.72663C15.8232 8.01952 15.8232 8.4944 15.5303 8.78729L12.5303 11.7873C12.2374 12.0802 11.7626 12.0802 11.4697 11.7873L8.46967 8.78729C8.17678 8.4944 8.17678 8.01952 8.46967 7.72663C8.76256 7.43373 9.23744 7.43373 9.53033 7.72663L11.25 9.4463V3.00696C11.25 2.59274 11.5858 2.25696 12 2.25696Z"
        fill="black" />
</svg>
