<svg width="24" height="24" viewBox="0 0 24 24" fill="none" xmlns="http://www.w3.org/2000/svg">
<path fill-rule="evenodd" clip-rule="evenodd" d="M1.5 9.83929V11.632C1.5 12.6675 2.33947 13.507 3.375 13.507H20.625C21.6605 13.507 22.5 12.6675 22.5 11.632V9.83929C22.5 9.12315 22.2438 8.43064 21.7778 7.88691L18.4929 4.05458C17.923 3.38965 17.0909 3.00696 16.2151 3.00696H7.78485C6.90908 3.00696 6.07703 3.38965 5.50708 4.05458L2.22223 7.88691C1.75618 8.43064 1.5 9.12315 1.5 9.83929ZM7.78485 4.50696C7.34697 4.50696 6.93094 4.6983 6.64597 5.03077L3.88067 8.25696H7.04584C8.0489 8.25696 8.98559 8.75826 9.54199 9.59286L9.70609 9.83901C9.98429 10.2563 10.4526 10.507 10.9542 10.507H13.0458C13.5474 10.507 14.0157 10.2563 14.2939 9.83901L14.458 9.59286C15.0144 8.75826 15.9511 8.25696 16.9542 8.25696H20.1193L17.354 5.03077C17.0691 4.6983 16.653 4.50696 16.2151 4.50696H7.78485Z" fill="black"/>
<path d="M2.8125 15.007C2.08763 15.007 1.5 15.5946 1.5 16.3195V18.007C1.5 19.6638 2.84315 21.007 4.5 21.007H19.5C21.1569 21.007 22.5 19.6638 22.5 18.007V16.3195C22.5 15.5946 21.9124 15.007 21.1875 15.007H16.9542C15.9511 15.007 15.0144 15.5083 14.458 16.3429L14.2939 16.589C14.0157 17.0063 13.5474 17.257 13.0458 17.257H10.9542C10.4526 17.257 9.98429 17.0063 9.70609 16.589L9.54199 16.3429C8.98559 15.5083 8.0489 15.007 7.04584 15.007H2.8125Z" fill="black"/>
</svg>
