<svg width="24" height="24" viewBox="0 0 24 24" fill="none" xmlns="http://www.w3.org/2000/svg">
<path fill-rule="evenodd" clip-rule="evenodd" d="M2.25 12.007C2.25 6.62218 6.61522 2.25696 12 2.25696C17.3848 2.25696 21.75 6.62218 21.75 12.007C21.75 17.3917 17.3848 21.757 12 21.757C6.61522 21.757 2.25 17.3917 2.25 12.007ZM10.9562 10.5654C12.1025 9.99229 13.3931 11.0276 13.0823 12.2709L12.3733 15.1069L12.4148 15.0862C12.7852 14.9009 13.2357 15.0511 13.421 15.4216C13.6062 15.792 13.4561 16.2425 13.0856 16.4278L13.0441 16.4485C11.8979 17.0217 10.6072 15.9864 10.9181 14.7431L11.6271 11.907L11.5856 11.9278C11.2151 12.113 10.7646 11.9629 10.5793 11.5924C10.3941 11.2219 10.5443 10.7714 10.9148 10.5862L10.9562 10.5654ZM12 9.00696C12.4142 9.00696 12.75 8.67117 12.75 8.25696C12.75 7.84274 12.4142 7.50696 12 7.50696C11.5858 7.50696 11.25 7.84274 11.25 8.25696C11.25 8.67117 11.5858 9.00696 12 9.00696Z" fill="black"/>
</svg>
