<svg width="24" height="24" viewBox="0 0 24 24" fill="none" xmlns="http://www.w3.org/2000/svg">
<path fill-rule="evenodd" clip-rule="evenodd" d="M15.75 1.50928C12.0221 1.50928 9 4.53136 9 8.25928C9 8.653 9.03379 9.03943 9.0988 9.41567C9.16599 9.80455 9.06678 10.1318 8.87767 10.3209L2.37868 16.8199C1.81607 17.3825 1.5 18.1456 1.5 18.9413V21.7593C1.5 22.1735 1.83579 22.5093 2.25 22.5093H6C6.41421 22.5093 6.75 22.1735 6.75 21.7593V20.2593H8.25C8.66421 20.2593 9 19.9235 9 19.5093V18.0093H10.5C10.6989 18.0093 10.8897 17.9303 11.0303 17.7896L13.6883 15.1316C13.8774 14.9425 14.2047 14.8433 14.5936 14.9105C14.9698 14.9755 15.3563 15.0093 15.75 15.0093C19.4779 15.0093 22.5 11.9872 22.5 8.25928C22.5 4.53136 19.4779 1.50928 15.75 1.50928ZM15.75 4.50928C15.3358 4.50928 15 4.84506 15 5.25928C15 5.67349 15.3358 6.00928 15.75 6.00928C16.9926 6.00928 18 7.01664 18 8.25928C18 8.67349 18.3358 9.00928 18.75 9.00928C19.1642 9.00928 19.5 8.67349 19.5 8.25928C19.5 6.18821 17.8211 4.50928 15.75 4.50928Z" fill="black"/>
</svg>
