<svg width="24" height="24" viewBox="0 0 24 24" fill="none" xmlns="http://www.w3.org/2000/svg">
<path fill-rule="evenodd" clip-rule="evenodd" d="M8.99991 2.25928C9.41413 2.25928 9.74991 2.59506 9.74991 3.00928V4.51493C10.6343 4.52827 11.513 4.56517 12.3855 4.62504C13.295 4.68743 14.1976 4.77478 15.0927 4.8864C15.5037 4.93766 15.7954 5.31241 15.7442 5.72344C15.6929 6.13447 15.3181 6.42613 14.9071 6.37488C14.2476 6.29264 13.5838 6.22398 12.9161 6.16921C12.3253 8.47898 11.3059 10.6166 9.94785 12.4927C10.2647 12.8759 10.5978 13.2453 10.9461 13.5997C11.2364 13.8952 11.2323 14.37 10.9369 14.6603C10.6415 14.9507 10.1666 14.9466 9.87627 14.6511C9.5734 14.3429 9.28108 14.0243 8.99991 13.6958C7.42878 15.5313 5.50932 17.0594 3.34414 18.1779C2.97613 18.368 2.52369 18.2238 2.33357 17.8558C2.14346 17.4878 2.28768 17.0353 2.65568 16.8452C4.73747 15.7698 6.57204 14.283 8.05199 12.4927C7.18589 11.2962 6.45748 9.99328 5.89012 8.60701C5.73323 8.22366 5.91681 7.78571 6.30016 7.62882C6.68351 7.47192 7.12146 7.6555 7.27835 8.03885C7.74067 9.16847 8.31948 10.2383 8.99991 11.2334C10.0648 9.67602 10.8809 7.93531 11.3911 6.06872C10.5991 6.02925 9.80187 6.00928 8.99991 6.00928C6.99905 6.00928 5.02757 6.1336 3.09272 6.37488C2.68169 6.42613 2.30693 6.13447 2.25568 5.72344C2.20442 5.31241 2.49608 4.93766 2.90711 4.8864C4.66105 4.66769 6.4437 4.54218 8.24991 4.51493V3.00928C8.24991 2.59506 8.5857 2.25928 8.99991 2.25928ZM15.7499 9.00928C16.0413 9.00928 16.3063 9.17806 16.4296 9.44211L21.6796 20.6921C21.8547 21.0675 21.6924 21.5138 21.3171 21.6889C20.9417 21.8641 20.4954 21.7018 20.3203 21.3264L19.1223 18.7593H12.3776L11.1796 21.3264C11.0044 21.7018 10.5581 21.8641 10.1827 21.6889C9.8074 21.5138 9.64511 21.0675 9.82028 20.6921L15.0703 9.44211C15.1935 9.17806 15.4585 9.00928 15.7499 9.00928ZM13.0776 17.2593H18.4223L15.7499 11.5328L13.0776 17.2593Z" fill="black"/>
</svg>
