<svg width="24" height="25" viewBox="0 0 24 25" fill="none" xmlns="http://www.w3.org/2000/svg">
<path fill-rule="evenodd" clip-rule="evenodd" d="M2.625 6.7616C2.625 6.14028 3.12868 5.6366 3.75 5.6366C4.37132 5.6366 4.875 6.14028 4.875 6.7616C4.875 7.38292 4.37132 7.8866 3.75 7.8866C3.12868 7.8866 2.625 7.38292 2.625 6.7616ZM7.5 6.7616C7.5 6.34738 7.83579 6.0116 8.25 6.0116H20.25C20.6642 6.0116 21 6.34738 21 6.7616C21 7.17581 20.6642 7.5116 20.25 7.5116H8.25C7.83579 7.5116 7.5 7.17581 7.5 6.7616ZM2.625 12.0116C2.625 11.3903 3.12868 10.8866 3.75 10.8866C4.37132 10.8866 4.875 11.3903 4.875 12.0116C4.875 12.6329 4.37132 13.1366 3.75 13.1366C3.12868 13.1366 2.625 12.6329 2.625 12.0116ZM7.5 12.0116C7.5 11.5974 7.83579 11.2616 8.25 11.2616H20.25C20.6642 11.2616 21 11.5974 21 12.0116C21 12.4258 20.6642 12.7616 20.25 12.7616H8.25C7.83579 12.7616 7.5 12.4258 7.5 12.0116ZM2.625 17.2616C2.625 16.6403 3.12868 16.1366 3.75 16.1366C4.37132 16.1366 4.875 16.6403 4.875 17.2616C4.875 17.8829 4.37132 18.3866 3.75 18.3866C3.12868 18.3866 2.625 17.8829 2.625 17.2616ZM7.5 17.2616C7.5 16.8474 7.83579 16.5116 8.25 16.5116H20.25C20.6642 16.5116 21 16.8474 21 17.2616C21 17.6758 20.6642 18.0116 20.25 18.0116H8.25C7.83579 18.0116 7.5 17.6758 7.5 17.2616Z" fill="black"/>
</svg>
