<svg width="24" height="25" viewBox="0 0 24 25" fill="none" xmlns="http://www.w3.org/2000/svg">
<path fill-rule="evenodd" clip-rule="evenodd" d="M12 1.5116C9.10051 1.5116 6.75 3.8621 6.75 6.7616V9.7616C5.09315 9.7616 3.75 11.1047 3.75 12.7616V19.5116C3.75 21.1685 5.09315 22.5116 6.75 22.5116H17.25C18.9069 22.5116 20.25 21.1685 20.25 19.5116V12.7616C20.25 11.1047 18.9069 9.7616 17.25 9.7616V6.7616C17.25 3.8621 14.8995 1.5116 12 1.5116ZM15.75 9.7616V6.7616C15.75 4.69053 14.0711 3.0116 12 3.0116C9.92893 3.0116 8.25 4.69053 8.25 6.7616V9.7616H15.75Z" fill="black"/>
</svg>
