<svg width="24" height="25" viewBox="0 0 24 25" fill="none" xmlns="http://www.w3.org/2000/svg">
<path fill-rule="evenodd" clip-rule="evenodd" d="M10.5 3.7616C6.77208 3.7616 3.75 6.78367 3.75 10.5116C3.75 14.2395 6.77208 17.2616 10.5 17.2616C12.3642 17.2616 14.0506 16.5069 15.273 15.2846C16.4953 14.0622 17.25 12.3758 17.25 10.5116C17.25 6.78367 14.2279 3.7616 10.5 3.7616ZM2.25 10.5116C2.25 5.95525 5.94365 2.2616 10.5 2.2616C15.0563 2.2616 18.75 5.95525 18.75 10.5116C18.75 12.5194 18.032 14.3607 16.8399 15.7909L21.5303 20.4813C21.8232 20.7742 21.8232 21.249 21.5303 21.5419C21.2374 21.8348 20.7626 21.8348 20.4697 21.5419L15.7793 16.8515C14.3491 18.0436 12.5078 18.7616 10.5 18.7616C5.94365 18.7616 2.25 15.0679 2.25 10.5116ZM10.5 6.7616C10.9142 6.7616 11.25 7.09738 11.25 7.5116V9.7616H13.5C13.9142 9.7616 14.25 10.0974 14.25 10.5116C14.25 10.9258 13.9142 11.2616 13.5 11.2616H11.25V13.5116C11.25 13.9258 10.9142 14.2616 10.5 14.2616C10.0858 14.2616 9.75 13.9258 9.75 13.5116V11.2616H7.5C7.08579 11.2616 6.75 10.9258 6.75 10.5116C6.75 10.0974 7.08579 9.7616 7.5 9.7616H9.75V7.5116C9.75 7.09738 10.0858 6.7616 10.5 6.7616Z" fill="black"/>
</svg>
