<svg width="24" height="25" viewBox="0 0 24 25" fill="none" xmlns="http://www.w3.org/2000/svg">
<path fill-rule="evenodd" clip-rule="evenodd" d="M11.5397 22.3626C11.57 22.3801 11.5937 22.3936 11.6105 22.4031L11.6384 22.4187C11.8613 22.541 12.1378 22.5401 12.3608 22.4191L12.3895 22.4031C12.4063 22.3936 12.43 22.3801 12.4603 22.3626C12.5207 22.3276 12.607 22.2766 12.7155 22.2098C12.9325 22.0762 13.2388 21.8792 13.6046 21.6207C14.3351 21.1047 15.3097 20.339 16.2865 19.3389C18.2307 17.3484 20.25 14.3578 20.25 10.5116C20.25 5.95525 16.5563 2.2616 12 2.2616C7.44365 2.2616 3.75 5.95525 3.75 10.5116C3.75 14.3578 5.76932 17.3484 7.71346 19.3389C8.69025 20.339 9.66491 21.1047 10.3954 21.6207C10.7612 21.8792 11.0675 22.0762 11.2845 22.2098C11.393 22.2766 11.4793 22.3276 11.5397 22.3626ZM12 13.5116C13.6569 13.5116 15 12.1685 15 10.5116C15 8.85474 13.6569 7.5116 12 7.5116C10.3431 7.5116 9 8.85474 9 10.5116C9 12.1685 10.3431 13.5116 12 13.5116Z" fill="black"/>
</svg>
