<svg width="24" height="25" viewBox="0 0 24 25" fill="none" xmlns="http://www.w3.org/2000/svg">
<path d="M16.8812 4.35709C14.81 5.18567 12.5917 5.72486 10.276 5.92467C9.60847 5.98227 8.93276 6.01168 8.25 6.01168H7.5C4.60051 6.01168 2.25 8.36218 2.25 11.2617C2.25 13.8613 4.13945 16.0196 6.61997 16.4382C6.95424 17.8072 7.41805 19.1254 7.99764 20.3791C8.46171 21.3828 9.67181 21.6991 10.5803 21.1746L11.2366 20.7957C12.1167 20.2876 12.4023 19.203 12.0087 18.3276C11.7738 17.8052 11.5642 17.269 11.3814 16.7207C13.2988 16.9787 15.1419 17.4704 16.8812 18.1663C17.6069 15.9969 18 13.6752 18 11.2617C18 8.84814 17.6069 6.52644 16.8812 4.35709Z" fill="black"/>
<path d="M18.2606 3.75238C19.0641 6.10808 19.5 8.63396 19.5 11.2617C19.5 13.8894 19.0641 16.4153 18.2606 18.771C18.2054 18.9327 18.1487 19.0938 18.0901 19.2539C17.9477 19.6428 18.1476 20.0736 18.5366 20.216C18.9256 20.3584 19.3563 20.1585 19.4987 19.7695C19.6387 19.387 19.7696 19 19.891 18.609C20.4147 16.9222 20.7627 15.1585 20.914 13.3394C21.431 12.801 21.75 12.0683 21.75 11.2617C21.75 10.455 21.431 9.72239 20.914 9.18393C20.7627 7.36485 20.4147 5.60114 19.891 3.91439C19.7696 3.52331 19.6387 3.13638 19.4987 2.75387C19.3563 2.3649 18.9256 2.165 18.5366 2.30738C18.1476 2.44976 17.9477 2.88051 18.0901 3.26948C18.1487 3.4296 18.2055 3.59063 18.2606 3.75238Z" fill="black"/>
</svg>
