<svg width="24" height="25" viewBox="0 0 24 25" fill="none" xmlns="http://www.w3.org/2000/svg">
<path fill-rule="evenodd" clip-rule="evenodd" d="M19.9516 1.66284C20.1395 1.80456 20.25 2.02626 20.25 2.2616V5.99504C20.2503 6.00636 20.2503 6.01765 20.25 6.02892V16.3144C20.25 17.6539 19.3621 18.831 18.0742 19.199L16.7542 19.5761C15.1234 20.0421 13.5 18.8176 13.5 17.1215C13.5 15.9817 14.2556 14.98 15.3515 14.6669L17.6621 14.0067C18.306 13.8227 18.75 13.2341 18.75 12.5644V7.0059L9.75 9.57733V19.3144C9.75 20.6539 8.86207 21.831 7.57416 22.199L6.25418 22.5761C4.62337 23.0421 3 21.8176 3 20.1215C3 18.9817 3.75559 17.98 4.85153 17.6669L7.16208 17.0067C7.80603 16.8227 8.25 16.2341 8.25 15.5644V9.02819C8.24974 9.01685 8.24974 9.00555 8.25 8.99428V5.2616C8.25 4.92674 8.47198 4.63245 8.79396 4.54046L19.294 1.54046C19.5202 1.47581 19.7638 1.52112 19.9516 1.66284Z" fill="black"/>
</svg>
