<svg width="24" height="25" viewBox="0 0 24 25" fill="none" xmlns="http://www.w3.org/2000/svg">
<path fill-rule="evenodd" clip-rule="evenodd" d="M4.125 3.0116C3.08947 3.0116 2.25 3.85106 2.25 4.8866V18.0116C2.25 19.6685 3.59315 21.0116 5.25 21.0116H20.25C18.5931 21.0116 17.25 19.6685 17.25 18.0116V4.8866C17.25 3.85106 16.4105 3.0116 15.375 3.0116H4.125ZM12 9.7616C11.5858 9.7616 11.25 10.0974 11.25 10.5116C11.25 10.9258 11.5858 11.2616 12 11.2616H13.5C13.9142 11.2616 14.25 10.9258 14.25 10.5116C14.25 10.0974 13.9142 9.7616 13.5 9.7616H12ZM11.25 7.5116C11.25 7.09738 11.5858 6.7616 12 6.7616H13.5C13.9142 6.7616 14.25 7.09738 14.25 7.5116C14.25 7.92581 13.9142 8.2616 13.5 8.2616H12C11.5858 8.2616 11.25 7.92581 11.25 7.5116ZM6 12.7616C5.58579 12.7616 5.25 13.0974 5.25 13.5116C5.25 13.9258 5.58579 14.2616 6 14.2616H13.5C13.9142 14.2616 14.25 13.9258 14.25 13.5116C14.25 13.0974 13.9142 12.7616 13.5 12.7616H6ZM5.25 16.5116C5.25 16.0974 5.58579 15.7616 6 15.7616H13.5C13.9142 15.7616 14.25 16.0974 14.25 16.5116C14.25 16.9258 13.9142 17.2616 13.5 17.2616H6C5.58579 17.2616 5.25 16.9258 5.25 16.5116ZM6 6.7616C5.58579 6.7616 5.25 7.09738 5.25 7.5116V10.5116C5.25 10.9258 5.58579 11.2616 6 11.2616H9C9.41421 11.2616 9.75 10.9258 9.75 10.5116V7.5116C9.75 7.09738 9.41421 6.7616 9 6.7616H6Z" fill="black"/>
<path d="M18.75 6.7616H20.625C21.2463 6.7616 21.75 7.26528 21.75 7.8866V18.0116C21.75 18.84 21.0784 19.5116 20.25 19.5116C19.4216 19.5116 18.75 18.84 18.75 18.0116V6.7616Z" fill="black"/>
</svg>
