<svg width="24" height="25" viewBox="0 0 24 25" fill="none" xmlns="http://www.w3.org/2000/svg">
<path fill-rule="evenodd" clip-rule="evenodd" d="M6.72048 5.67142L18.3402 17.2911C21.0455 14.0499 20.8767 9.22102 17.8336 6.17797C14.7906 3.13491 9.96171 2.96606 6.72048 5.67142ZM17.2795 18.3518L5.65982 6.73208C2.95446 9.97331 3.12331 14.8022 6.16637 17.8452C9.20943 20.8883 14.0383 21.0571 17.2795 18.3518ZM5.10571 5.11731C8.91332 1.30969 15.0867 1.30969 18.8943 5.11731C22.7019 8.92492 22.7019 15.0983 18.8943 18.9059C15.0867 22.7135 8.91332 22.7135 5.10571 18.9059C1.2981 15.0983 1.2981 8.92492 5.10571 5.11731Z" fill="black"/>
</svg>
