<svg width="24" height="25" viewBox="0 0 24 25" fill="none" xmlns="http://www.w3.org/2000/svg">
<path fill-rule="evenodd" clip-rule="evenodd" d="M20.5986 1.51392C20.2232 1.51392 19.8562 1.62503 19.5439 1.83325L14.4649 5.21925C13.1853 6.07227 12.0203 7.07632 10.993 8.20609C13.1064 9.19782 14.8161 10.9075 15.8078 13.0209C16.9376 11.9936 17.9416 10.8285 18.7946 9.54899L22.1806 4.47C22.3888 4.15767 22.5 3.79069 22.5 3.4153C22.5 2.3652 21.6487 1.51392 20.5986 1.51392ZM12.2995 15.5388C12.9568 15.1736 13.5898 14.7703 14.1954 14.3314C13.3836 12.2719 11.742 10.6303 9.68246 9.81847C9.24361 10.4241 8.84023 11.0571 8.47506 11.7144L8.19653 12.2157C9.93302 12.7124 11.3015 14.0808 11.7981 15.8173L12.2995 15.5388ZM6.74995 13.5139C4.67886 13.5139 2.99995 15.1928 2.99995 17.2639C2.99995 18.0923 2.32839 18.7639 1.49995 18.7639C1.46599 18.7639 1.43219 18.7628 1.3986 18.7606C1.12245 18.7423 0.858681 18.8776 0.712418 19.1126C0.566154 19.3475 0.561166 19.6439 0.699441 19.8836C1.60524 21.4541 3.30337 22.5139 5.24995 22.5139C8.14946 22.5139 10.5 20.1634 10.5 17.2639C10.5 15.1928 8.82104 13.5139 6.74995 13.5139Z" fill="black"/>
</svg>
