<svg width="24" height="25" viewBox="0 0 24 25" fill="none" xmlns="http://www.w3.org/2000/svg">
<path d="M3.47804 2.41822C3.2133 2.34132 2.92771 2.41585 2.73432 2.61232C2.54093 2.80879 2.47091 3.09552 2.55198 3.35901L4.98426 11.2639H13.5C13.9142 11.2639 14.25 11.5997 14.25 12.0139C14.25 12.4281 13.9142 12.7639 13.5 12.7639H4.98427L2.55207 20.6686C2.471 20.9321 2.54102 21.2188 2.73441 21.4153C2.92781 21.6117 3.2134 21.6863 3.47814 21.6093C10.1767 19.6634 16.3974 16.5953 21.9233 12.6226C22.1193 12.4817 22.2355 12.2551 22.2355 12.0137C22.2355 11.7723 22.1193 11.5456 21.9233 11.4047C16.3974 7.43208 10.1767 4.36413 3.47804 2.41822Z" fill="black"/>
</svg>
