<svg width="24" height="25" viewBox="0 0 24 25" fill="none" xmlns="http://www.w3.org/2000/svg">
<path fill-rule="evenodd" clip-rule="evenodd" d="M6.75 5.26392C6.75 4.8497 7.08579 4.51392 7.5 4.51392H9C9.41421 4.51392 9.75 4.8497 9.75 5.26392V18.7639C9.75 19.1781 9.41421 19.5139 9 19.5139H7.5C7.30109 19.5139 7.11032 19.4349 6.96967 19.2942C6.82902 19.1536 6.75 18.9628 6.75 18.7639L6.75 5.26392ZM14.25 5.26392C14.25 4.8497 14.5858 4.51392 15 4.51392H16.5C16.6989 4.51392 16.8897 4.59293 17.0303 4.73359C17.171 4.87424 17.25 5.065 17.25 5.26392V18.7639C17.25 19.1781 16.9142 19.5139 16.5 19.5139H15C14.5858 19.5139 14.25 19.1781 14.25 18.7639V5.26392Z" fill="black"/>
</svg>
