<svg width="24" height="25" viewBox="0 0 24 25" fill="none" xmlns="http://www.w3.org/2000/svg">
<path d="M21.7312 2.28276C20.706 1.25763 19.044 1.25763 18.0188 2.28276L16.8617 3.43991L20.574 7.15222L21.7312 5.99507C22.7563 4.96995 22.7563 3.30789 21.7312 2.28276Z" fill="black"/>
<path d="M19.5133 8.21288L15.801 4.50057L7.40019 12.9014C6.78341 13.5182 6.33002 14.279 6.081 15.1149L5.28122 17.7998C5.2026 18.0637 5.27494 18.3495 5.46967 18.5442C5.6644 18.739 5.95019 18.8113 6.21412 18.7327L8.89901 17.9329C9.73498 17.6839 10.4957 17.2305 11.1125 16.6137L19.5133 8.21288Z" fill="black"/>
<path d="M5.25 5.26391C3.59315 5.26391 2.25 6.60705 2.25 8.26391V18.7639C2.25 20.4208 3.59315 21.7639 5.25 21.7639H15.75C17.4069 21.7639 18.75 20.4208 18.75 18.7639V13.5139C18.75 13.0997 18.4142 12.7639 18 12.7639C17.5858 12.7639 17.25 13.0997 17.25 13.5139V18.7639C17.25 19.5923 16.5784 20.2639 15.75 20.2639H5.25C4.42157 20.2639 3.75 19.5923 3.75 18.7639V8.26391C3.75 7.43548 4.42157 6.76391 5.25 6.76391H10.5C10.9142 6.76391 11.25 6.42812 11.25 6.01391C11.25 5.59969 10.9142 5.26391 10.5 5.26391H5.25Z" fill="black"/>
</svg>
