<svg width="18" height="15" viewBox="0 0 18 15" fill="none" xmlns="http://www.w3.org/2000/svg">
<path d="M13 13.8H17V12.2C17 11.7012 16.8445 11.2149 16.5553 10.8085C16.2661 10.4021 15.8575 10.096 15.3862 9.9326C14.9149 9.76921 14.4045 9.7567 13.9258 9.89682C13.4471 10.0369 13.024 10.3227 12.7152 10.7144M13 13.8H5M13 13.8V12.2C13 11.6752 12.8992 11.1736 12.7152 10.7144M12.7152 10.7144C12.4181 9.97197 11.9054 9.33557 11.2432 8.8873C10.581 8.43903 9.79967 8.19944 9 8.19944C8.20033 8.19944 7.41901 8.43903 6.7568 8.8873C6.0946 9.33557 5.58188 9.97197 5.2848 10.7144M5 13.8H1V12.2C1.00004 11.7012 1.15547 11.2149 1.44469 10.8085C1.73391 10.4021 2.14255 10.096 2.6138 9.9326C3.08505 9.76921 3.5955 9.7567 4.07419 9.89682C4.55288 10.0369 4.97602 10.3227 5.2848 10.7144M5 13.8V12.2C5 11.6752 5.1008 11.1736 5.2848 10.7144M11.4 3.4C11.4 4.03652 11.1471 4.64697 10.6971 5.09706C10.247 5.54714 9.63652 5.8 9 5.8C8.36348 5.8 7.75303 5.54714 7.30294 5.09706C6.85286 4.64697 6.6 4.03652 6.6 3.4C6.6 2.76348 6.85286 2.15303 7.30294 1.70294C7.75303 1.25286 8.36348 1 9 1C9.63652 1 10.247 1.25286 10.6971 1.70294C11.1471 2.15303 11.4 2.76348 11.4 3.4ZM16.2 5.8C16.2 6.22435 16.0314 6.63131 15.7314 6.93137C15.4313 7.23143 15.0243 7.4 14.6 7.4C14.1757 7.4 13.7687 7.23143 13.4686 6.93137C13.1686 6.63131 13 6.22435 13 5.8C13 5.37565 13.1686 4.96869 13.4686 4.66863C13.7687 4.36857 14.1757 4.2 14.6 4.2C15.0243 4.2 15.4313 4.36857 15.7314 4.66863C16.0314 4.96869 16.2 5.37565 16.2 5.8ZM5 5.8C5 6.22435 4.83143 6.63131 4.53137 6.93137C4.23131 7.23143 3.82435 7.4 3.4 7.4C2.97565 7.4 2.56869 7.23143 2.26863 6.93137C1.96857 6.63131 1.8 6.22435 1.8 5.8C1.8 5.37565 1.96857 4.96869 2.26863 4.66863C2.56869 4.36857 2.97565 4.2 3.4 4.2C3.82435 4.2 4.23131 4.36857 4.53137 4.66863C4.83143 4.96869 5 5.37565 5 5.8Z" stroke="#000000" stroke-width="1.5" stroke-linecap="round" stroke-linejoin="round"/>
</svg>
