<svg width="24" height="25" viewBox="0 0 24 25" fill="none" xmlns="http://www.w3.org/2000/svg">
<path d="M15 6.76611C14.5858 6.76611 14.25 7.1019 14.25 7.51611V18.0161C14.25 18.215 14.329 18.4058 14.4697 18.5464C14.6103 18.6871 14.8011 18.7661 15 18.7661H15.75C16.1642 18.7661 16.5 18.4303 16.5 18.0161V7.51611C16.5 7.1019 16.1642 6.76611 15.75 6.76611H15Z" fill="black"/>
<path d="M20.25 6.76611C19.8358 6.76611 19.5 7.1019 19.5 7.51611V18.0161C19.5 18.4303 19.8358 18.7661 20.25 18.7661H21C21.4142 18.7661 21.75 18.4303 21.75 18.0161L21.75 7.51611C21.75 7.3172 21.671 7.12644 21.5303 6.98578C21.3897 6.84513 21.1989 6.76611 21 6.76611H20.25Z" fill="black"/>
<path d="M5.05526 7.07672C3.80528 6.36244 2.25 7.26501 2.25 8.70467V16.8275C2.25 18.2672 3.80528 19.1698 5.05526 18.4555L12.1628 14.3941C13.4224 13.6743 13.4224 11.8579 12.1628 11.1381L5.05526 7.07672Z" fill="black"/>
</svg>
