<svg width="24" height="25" viewBox="0 0 24 25" fill="none" xmlns="http://www.w3.org/2000/svg">
<path fill-rule="evenodd" clip-rule="evenodd" d="M12 2.26611C6.61522 2.26611 2.25 6.63134 2.25 12.0161C2.25 17.4009 6.61522 21.7661 12 21.7661C17.3848 21.7661 21.75 17.4009 21.75 12.0161C21.75 6.63134 17.3848 2.26611 12 2.26611ZM12.75 9.01611C12.75 8.6019 12.4142 8.26611 12 8.26611C11.5858 8.26611 11.25 8.6019 11.25 9.01611V11.2661H9C8.58579 11.2661 8.25 11.6019 8.25 12.0161C8.25 12.4303 8.58579 12.7661 9 12.7661H11.25V15.0161C11.25 15.4303 11.5858 15.7661 12 15.7661C12.4142 15.7661 12.75 15.4303 12.75 15.0161V12.7661H15C15.4142 12.7661 15.75 12.4303 15.75 12.0161C15.75 11.6019 15.4142 11.2661 15 11.2661H12.75V9.01611Z" fill="black"/>
</svg>
