<svg width="24" height="25" viewBox="0 0 24 25" fill="none" xmlns="http://www.w3.org/2000/svg">
<path fill-rule="evenodd" clip-rule="evenodd" d="M2.25 2.26611C1.83579 2.26611 1.5 2.6019 1.5 3.01611C1.5 3.43033 1.83579 3.76611 2.25 3.76611H3V14.2661C3 15.923 4.34315 17.2661 6 17.2661H7.20943L6.03849 20.7789C5.9075 21.1719 6.11987 21.5966 6.51283 21.7276C6.90579 21.8586 7.33053 21.6462 7.46151 21.2533L7.79057 20.2661H16.2094L16.5385 21.2533C16.6695 21.6462 17.0942 21.8586 17.4872 21.7276C17.8801 21.5966 18.0925 21.1719 17.9615 20.7789L16.7906 17.2661H18C19.6569 17.2661 21 15.923 21 14.2661V3.76611H21.75C22.1642 3.76611 22.5 3.43033 22.5 3.01611C22.5 2.6019 22.1642 2.26611 21.75 2.26611H2.25ZM8.79057 17.2661H15.2094L15.7094 18.7661H8.29057L8.79057 17.2661ZM16.8755 8.27079C17.2341 8.06338 17.3566 7.60458 17.1492 7.24604C16.9418 6.88749 16.483 6.76497 16.1245 6.97238C14.7577 7.76299 13.5517 8.79982 12.5667 10.0223L11.0303 8.48587C10.7374 8.19297 10.2626 8.19297 9.96967 8.48587L6.96967 11.4859C6.67678 11.7788 6.67678 12.2536 6.96967 12.5465C7.26256 12.8394 7.73744 12.8394 8.03033 12.5465L10.5 10.0769L12.1173 11.6941C12.2742 11.8511 12.4927 11.9305 12.7138 11.9109C12.9349 11.8913 13.136 11.7747 13.2629 11.5926C14.207 10.2378 15.4414 9.10039 16.8755 8.27079Z" fill="black"/>
</svg>
