<svg width="24" height="25" viewBox="0 0 24 25" fill="none" xmlns="http://www.w3.org/2000/svg">
<path fill-rule="evenodd" clip-rule="evenodd" d="M7.875 1.51611C6.83947 1.51611 6 2.35558 6 3.39111V6.38176C5.5736 6.4341 5.1489 6.49195 4.72596 6.55523C3.27191 6.77279 2.25 8.03775 2.25 9.4718V15.7661C2.25 17.423 3.59315 18.7661 5.25 18.7661H5.51963L5.36461 20.4714C5.26479 21.5694 6.12935 22.5161 7.23191 22.5161H16.7681C17.8706 22.5161 18.7352 21.5694 18.6354 20.4714L18.4804 18.7661H18.75C20.4069 18.7661 21.75 17.423 21.75 15.7661V9.4718C21.75 8.03775 20.7281 6.77279 19.274 6.55523C18.8511 6.49195 18.4264 6.4341 18 6.38176V3.39111C18 2.35558 17.1605 1.51611 16.125 1.51611H7.875ZM16.5 6.22109V3.39111C16.5 3.18401 16.3321 3.01611 16.125 3.01611H7.875C7.66789 3.01611 7.5 3.18401 7.5 3.39111V6.22109C8.98198 6.08543 10.483 6.01611 12 6.01611C13.517 6.01611 15.018 6.08543 16.5 6.22109ZM16.2834 14.4858C16.4607 14.5041 16.5996 14.6459 16.6158 14.8234L17.1415 20.6072C17.1615 20.8268 16.9886 21.0161 16.7681 21.0161H7.23191C7.0114 21.0161 6.83849 20.8268 6.85845 20.6072L7.38425 14.8234C7.40039 14.6459 7.53926 14.5041 7.71659 14.4858C9.12438 14.3406 10.5534 14.2661 12 14.2661C13.4466 14.2661 14.8756 14.3406 16.2834 14.4858ZM17.25 10.5161C17.25 10.1019 17.5858 9.76611 18 9.76611H18.0075C18.4217 9.76611 18.7575 10.1019 18.7575 10.5161V10.5236C18.7575 10.9378 18.4217 11.2736 18.0075 11.2736H18C17.5858 11.2736 17.25 10.9378 17.25 10.5236V10.5161ZM15 9.76611C14.5858 9.76611 14.25 10.1019 14.25 10.5161V10.5236C14.25 10.9378 14.5858 11.2736 15 11.2736H15.0075C15.4217 11.2736 15.7575 10.9378 15.7575 10.5236V10.5161C15.7575 10.1019 15.4217 9.76611 15.0075 9.76611H15Z" fill="black"/>
</svg>
