<svg width="24" height="25" viewBox="0 0 24 25" fill="none" xmlns="http://www.w3.org/2000/svg">
<path d="M11.25 5.35305C11.25 4.9979 11.064 4.67688 10.8488 4.39431C10.6279 4.10421 10.5 3.76011 10.5 3.39111C10.5 2.35558 11.5074 1.51611 12.75 1.51611C13.9926 1.51611 15 2.35558 15 3.39111C15 3.76011 14.8721 4.10421 14.6512 4.39431C14.436 4.67688 14.25 4.9979 14.25 5.35305C14.25 5.6854 14.5277 5.95071 14.8595 5.93092C16.7701 5.81691 18.6498 5.5894 20.4922 5.2551C20.6949 5.21831 20.9039 5.26656 21.07 5.38852C21.2361 5.51049 21.3447 5.69541 21.3703 5.89988C21.5943 7.68935 21.7213 9.50874 21.7459 11.3526C21.7508 11.7189 21.4533 12.016 21.0869 12.0161C20.7318 12.0161 20.4108 11.8301 20.1282 11.6149C19.8381 11.394 19.494 11.2661 19.125 11.2661C18.0895 11.2661 17.25 12.2735 17.25 13.5161C17.25 14.7588 18.0895 15.7661 19.125 15.7661C19.494 15.7661 19.8381 15.6382 20.1282 15.4173C20.4108 15.2022 20.7318 15.0161 21.0869 15.0161C21.3974 15.0161 21.6439 15.2778 21.6214 15.5874C21.5028 17.2259 21.3031 18.8422 21.0263 20.4322C20.9721 20.7441 20.7279 20.9883 20.416 21.0425C18.5969 21.3591 16.7434 21.5748 14.8615 21.6838C14.5285 21.703 14.25 21.4366 14.25 21.1031C14.25 20.7479 14.436 20.4269 14.6512 20.1443C14.8721 19.8542 15 19.5101 15 19.1411C15 18.1056 13.9926 17.2661 12.75 17.2661C11.5074 17.2661 10.5 18.1056 10.5 19.1411C10.5 19.5101 10.6279 19.8542 10.8488 20.1443C11.064 20.4269 11.25 20.7479 11.25 21.1031C11.25 21.4646 10.954 21.7566 10.5925 21.7464C9.00303 21.7013 7.43238 21.5801 5.88413 21.3863C5.67966 21.3607 5.49473 21.2521 5.37277 21.086C5.25081 20.9199 5.20256 20.7109 5.23935 20.5082C5.53223 18.8942 5.74315 17.2515 5.8676 15.5845C5.89058 15.2766 5.64563 15.0161 5.33694 15.0161C4.98178 15.0161 4.66076 15.2022 4.3782 15.4173C4.0881 15.6382 3.744 15.7661 3.375 15.7661C2.33947 15.7661 1.5 14.7588 1.5 13.5161C1.5 12.2735 2.33947 11.2661 3.375 11.2661C3.744 11.2661 4.0881 11.394 4.3782 11.6149C4.66076 11.8301 4.98178 12.0161 5.33694 12.0161C5.7033 12.0161 6.00078 11.7191 5.99574 11.3528C5.97334 9.72456 5.86862 8.11637 5.68559 6.5324C5.6593 6.30492 5.73838 6.0779 5.9003 5.91598C6.06222 5.75405 6.28924 5.67498 6.51672 5.70126C7.85902 5.85637 9.2186 5.95524 10.5931 5.99543C10.9541 6.00599 11.25 5.71429 11.25 5.35305Z" fill="black"/>
</svg>
