<svg width="24" height="24" viewBox="0 0 24 24" fill="none" xmlns="http://www.w3.org/2000/svg">
<path d="M10.375 2.25684C8.09683 2.25684 6.25 4.10366 6.25 6.38184C6.25 8.66001 8.09683 10.5068 10.375 10.5068C12.6532 10.5068 14.5 8.66001 14.5 6.38184C14.5 4.10366 12.6532 2.25684 10.375 2.25684Z" fill="black"/>
<path d="M10.375 12.0068C6.43997 12.0068 3.25 15.1968 3.25 19.1318C3.25 19.1726 3.25034 19.2132 3.25103 19.2538C3.25537 19.5123 3.39256 19.7503 3.61406 19.8837C5.5893 21.073 7.90343 21.7568 10.375 21.7568C12.8466 21.7568 15.1607 21.073 17.1359 19.8837C17.3574 19.7503 17.4946 19.5123 17.499 19.2538C17.4996 19.2142 17.5 19.1742 17.5 19.1344V19.1318C17.5 15.1968 14.31 12.0068 10.375 12.0068Z" fill="black"/>
<path d="M16 9.75684C15.5858 9.75684 15.25 10.0926 15.25 10.5068C15.25 10.921 15.5858 11.2568 16 11.2568H22C22.4142 11.2568 22.75 10.921 22.75 10.5068C22.75 10.0926 22.4142 9.75684 22 9.75684H16Z" fill="black"/>
</svg>
