<svg width="24" height="24" viewBox="0 0 24 24" fill="none" xmlns="http://www.w3.org/2000/svg">
<path fill-rule="evenodd" clip-rule="evenodd" d="M8.25 6.75684C8.25 4.68577 9.92893 3.00684 12 3.00684C14.0711 3.00684 15.75 4.68577 15.75 6.75684C15.75 8.8279 14.0711 10.5068 12 10.5068C9.92893 10.5068 8.25 8.8279 8.25 6.75684Z" fill="black"/>
<path fill-rule="evenodd" clip-rule="evenodd" d="M15.75 9.75684C15.75 8.09998 17.0931 6.75684 18.75 6.75684C20.4069 6.75684 21.75 8.09998 21.75 9.75684C21.75 11.4137 20.4069 12.7568 18.75 12.7568C17.0931 12.7568 15.75 11.4137 15.75 9.75684Z" fill="black"/>
<path fill-rule="evenodd" clip-rule="evenodd" d="M2.25 9.75684C2.25 8.09998 3.59315 6.75684 5.25 6.75684C6.90685 6.75684 8.25 8.09998 8.25 9.75684C8.25 11.4137 6.90685 12.7568 5.25 12.7568C3.59315 12.7568 2.25 11.4137 2.25 9.75684Z" fill="black"/>
<path fill-rule="evenodd" clip-rule="evenodd" d="M6.30986 15.1244C7.50783 13.2512 9.60835 12.0068 12 12.0068C14.3919 12.0068 16.4927 13.2516 17.6906 15.125C18.5187 16.4203 18.877 17.982 18.709 19.5048C18.6827 19.7427 18.5444 19.9539 18.3368 20.073C16.4694 21.1445 14.3051 21.7568 12 21.7568C9.69492 21.7568 7.53059 21.1445 5.66325 20.073C5.45559 19.9539 5.3173 19.7427 5.29103 19.5048C5.12293 17.9817 5.48141 16.4197 6.30986 15.1244Z" fill="black"/>
<path d="M5.08228 14.2605C5.07024 14.279 5.05827 14.2976 5.04638 14.3162C4.08091 15.8257 3.63908 17.6235 3.77471 19.3958C3.16667 19.3035 2.5767 19.1549 2.01043 18.9555L1.89547 18.915C1.68576 18.8412 1.53923 18.6507 1.52159 18.4291L1.51192 18.3076C1.50402 18.2082 1.5 18.1079 1.5 18.0068C1.5 15.992 3.08905 14.3482 5.08228 14.2605Z" fill="black"/>
<path d="M20.2256 19.3958C20.3612 17.6238 19.9196 15.8264 18.9545 14.317C18.9424 14.2981 18.9303 14.2793 18.9181 14.2605C20.9111 14.3484 22.5 15.9921 22.5 18.0068C22.5 18.1079 22.496 18.2082 22.4881 18.3076L22.4784 18.4291C22.4608 18.6507 22.3142 18.8412 22.1045 18.915L21.9896 18.9555C21.4234 19.1549 20.8336 19.3034 20.2256 19.3958Z" fill="black"/>
</svg>
