<svg width="24" height="24" viewBox="0 0 24 24" fill="none" xmlns="http://www.w3.org/2000/svg">
<path fill-rule="evenodd" clip-rule="evenodd" d="M19.2535 2.29847C19.6447 2.16232 20.0722 2.36907 20.2083 2.76027C21.2033 5.61901 21.75 8.74036 21.75 12.0068C21.75 15.2732 21.2033 18.3946 20.2083 21.2533C20.0722 21.6445 19.6447 21.8513 19.2535 21.7151C18.8623 21.579 18.6555 21.1515 18.7917 20.7603C19.7313 18.0604 20.25 15.1058 20.25 12.0068C20.25 8.90783 19.7313 5.95317 18.7917 3.25333C18.6555 2.86213 18.8623 2.43463 19.2535 2.29847ZM5.02596 2.31159C5.40991 2.46701 5.59517 2.90426 5.43975 3.28821C4.3503 5.97961 3.75 8.92217 3.75 12.0068C3.75 15.0914 4.3503 18.034 5.43975 20.7254C5.59517 21.1093 5.40991 21.5466 5.02596 21.702C4.64201 21.8574 4.20477 21.6722 4.04935 21.2882C2.88874 18.421 2.25 15.2876 2.25 12.0068C2.25 8.72601 2.88874 5.59257 4.04935 2.72538C4.20477 2.34143 4.64201 2.15617 5.02596 2.31159ZM9.30143 7.36374C10.1246 6.85718 11.205 7.24995 11.5106 8.16689L12.2266 10.3148L13.601 8.2532C14.2504 7.27908 15.5007 6.90425 16.5789 7.36042L16.7922 7.45069C17.1737 7.61208 17.3521 8.05216 17.1907 8.43364C17.0293 8.81512 16.5892 8.99353 16.2078 8.83214L15.9944 8.74187C15.5797 8.56642 15.0989 8.71059 14.8491 9.08525L12.8275 12.1176L13.9124 15.3724L15.3569 14.4834C15.7097 14.2663 16.1717 14.3763 16.3887 14.7291C16.6058 15.0819 16.4958 15.5438 16.1431 15.7609L14.6986 16.6498C13.8754 17.1564 12.795 16.7636 12.4894 15.8467L11.7734 13.6988L10.399 15.7604C9.74958 16.7345 8.49934 17.1093 7.42112 16.6532L7.20777 16.5629C6.82629 16.4015 6.64788 15.9614 6.80927 15.58C6.97067 15.1985 7.41075 15.0201 7.79223 15.1815L8.00558 15.2717C8.42028 15.4472 8.90114 15.303 9.15091 14.9283L11.1725 11.896L10.0876 8.64123L8.64307 9.53015C8.2903 9.74724 7.82834 9.63725 7.61126 9.28448C7.39417 8.93172 7.50416 8.46976 7.85693 8.25267L9.30143 7.36374Z" fill="black"/>
</svg>
