<svg width="24" height="24" viewBox="0 0 24 24" fill="none" xmlns="http://www.w3.org/2000/svg">
<path d="M6 3.00684C4.34315 3.00684 3 4.34998 3 6.00684V7.50684C3 7.92105 3.33579 8.25684 3.75 8.25684C4.16421 8.25684 4.5 7.92105 4.5 7.50684V6.00684C4.5 5.17841 5.17157 4.50684 6 4.50684H7.5C7.91421 4.50684 8.25 4.17105 8.25 3.75684C8.25 3.34262 7.91421 3.00684 7.5 3.00684H6Z" fill="black"/>
<path d="M16.5 3.00684C16.0858 3.00684 15.75 3.34262 15.75 3.75684C15.75 4.17105 16.0858 4.50684 16.5 4.50684H18C18.8284 4.50684 19.5 5.17841 19.5 6.00684V7.50684C19.5 7.92105 19.8358 8.25684 20.25 8.25684C20.6642 8.25684 21 7.92105 21 7.50684V6.00684C21 4.34998 19.6569 3.00684 18 3.00684H16.5Z" fill="black"/>
<path d="M12 8.25684C9.92893 8.25684 8.25 9.93577 8.25 12.0068C8.25 14.0779 9.92893 15.7568 12 15.7568C14.0711 15.7568 15.75 14.0779 15.75 12.0068C15.75 9.93577 14.0711 8.25684 12 8.25684Z" fill="black"/>
<path d="M4.5 16.5068C4.5 16.0926 4.16421 15.7568 3.75 15.7568C3.33579 15.7568 3 16.0926 3 16.5068V18.0068C3 19.6637 4.34315 21.0068 6 21.0068H7.5C7.91421 21.0068 8.25 20.671 8.25 20.2568C8.25 19.8426 7.91421 19.5068 7.5 19.5068H6C5.17157 19.5068 4.5 18.8353 4.5 18.0068V16.5068Z" fill="black"/>
<path d="M21 16.5068C21 16.0926 20.6642 15.7568 20.25 15.7568C19.8358 15.7568 19.5 16.0926 19.5 16.5068V18.0068C19.5 18.8353 18.8284 19.5068 18 19.5068H16.5C16.0858 19.5068 15.75 19.8426 15.75 20.2568C15.75 20.671 16.0858 21.0068 16.5 21.0068H18C19.6569 21.0068 21 19.6637 21 18.0068V16.5068Z" fill="black"/>
</svg>
