<svg width="24" height="24" viewBox="0 0 24 24" fill="none" xmlns="http://www.w3.org/2000/svg">
<path d="M2.27307 5.63207C3.06638 4.93177 4.10851 4.50684 5.24989 4.50684H18.7499C19.8913 4.50684 20.9334 4.93178 21.7267 5.63207C21.5423 4.15209 20.2798 3.00684 18.7499 3.00684H5.24989C3.71995 3.00684 2.4575 4.15209 2.27307 5.63207Z" fill="black"/>
<path d="M2.27307 8.63207C3.06638 7.93177 4.10851 7.50684 5.24989 7.50684H18.7499C19.8913 7.50684 20.9334 7.93178 21.7267 8.63207C21.5423 7.15209 20.2798 6.00684 18.7499 6.00684H5.24989C3.71995 6.00684 2.4575 7.15209 2.27307 8.63207Z" fill="black"/>
<path d="M5.25 9.00684C3.59315 9.00684 2.25 10.35 2.25 12.0068V18.0068C2.25 19.6637 3.59315 21.0068 5.25 21.0068H18.75C20.4069 21.0068 21.75 19.6637 21.75 18.0068V12.0068C21.75 10.35 20.4069 9.00684 18.75 9.00684H15C14.5858 9.00684 14.25 9.34262 14.25 9.75684C14.25 10.9995 13.2426 12.0068 12 12.0068C10.7574 12.0068 9.75 10.9995 9.75 9.75684C9.75 9.34262 9.41421 9.00684 9 9.00684H5.25Z" fill="black"/>
</svg>
