<svg width="24" height="24" viewBox="0 0 24 24" fill="none" xmlns="http://www.w3.org/2000/svg">
<path fill-rule="evenodd" clip-rule="evenodd" d="M1.37128 8.15023C7.22915 2.29237 16.7266 2.29237 22.5845 8.15023C22.8774 8.44312 22.8774 8.91798 22.5845 9.21087L22.0542 9.74125C21.9135 9.88191 21.7228 9.96093 21.5238 9.96094C21.3249 9.96094 21.1341 9.88193 20.9935 9.74127C16.0143 4.76208 7.94146 4.76208 2.96227 9.74127C2.82162 9.88193 2.63084 9.96094 2.43193 9.96094C2.23301 9.96093 2.04224 9.88191 1.90159 9.74125L1.37126 9.21087C1.07839 8.91797 1.0784 8.44312 1.37128 8.15023ZM4.55326 11.3323C8.65377 7.23176 15.302 7.23176 19.4025 11.3323C19.6954 11.6252 19.6954 12.1 19.4025 12.3929L18.8722 12.9232C18.7316 13.0639 18.5408 13.1429 18.3419 13.1429C18.143 13.1429 17.9522 13.0639 17.8115 12.9233C14.5897 9.70143 9.3661 9.70143 6.14427 12.9233C5.85139 13.2161 5.37652 13.2162 5.08362 12.9233L4.55327 12.3929C4.41262 12.2523 4.33359 12.0615 4.33359 11.8626C4.33359 11.6637 4.41261 11.4729 4.55326 11.3323ZM7.75733 14.5142C10.1005 12.1711 13.8995 12.1711 16.2426 14.5142C16.5355 14.8071 16.5355 15.282 16.2426 15.5749L15.7123 16.1052C15.5716 16.2458 15.3809 16.3249 15.182 16.3249C14.983 16.3249 14.7923 16.2458 14.6516 16.1052C13.1872 14.6407 10.8128 14.6407 9.34832 16.1052C9.05543 16.3981 8.58055 16.3981 8.28766 16.1052L7.75733 15.5749C7.46444 15.282 7.46444 14.8071 7.75733 14.5142ZM10.9393 17.6962C11.5251 17.1104 12.4748 17.1104 13.0606 17.6962C13.3535 17.9891 13.3535 18.4639 13.0606 18.7568L12.5303 19.2872C12.3896 19.4278 12.1989 19.5068 12 19.5068C11.8011 19.5068 11.6103 19.4278 11.4696 19.2872L10.9393 18.7568C10.6464 18.4639 10.6464 17.9891 10.9393 17.6962Z" fill="black"/>
</svg>
