<svg width="24" height="24" viewBox="0 0 24 24" fill="none" xmlns="http://www.w3.org/2000/svg">
<path fill-rule="evenodd" clip-rule="evenodd" d="M2.25 6.00684C2.25 4.34998 3.59315 3.00684 5.25 3.00684H18.75C20.4069 3.00684 21.75 4.34998 21.75 6.00684V18.0068C21.75 19.6637 20.4069 21.0068 18.75 21.0068H5.25C3.59315 21.0068 2.25 19.6637 2.25 18.0068V6.00684ZM20.25 9.00684H3.75V18.0068C3.75 18.8353 4.42157 19.5068 5.25 19.5068H18.75C19.5784 19.5068 20.25 18.8353 20.25 18.0068V9.00684ZM5.25 5.25684C4.83579 5.25684 4.5 5.59262 4.5 6.00684V6.01434C4.5 6.42855 4.83579 6.76434 5.25 6.76434H5.2575C5.67171 6.76434 6.0075 6.42855 6.0075 6.01434V6.00684C6.0075 5.59262 5.67171 5.25684 5.2575 5.25684H5.25ZM6.75 6.00684C6.75 5.59262 7.08579 5.25684 7.5 5.25684H7.5075C7.92171 5.25684 8.2575 5.59262 8.2575 6.00684V6.01434C8.2575 6.42855 7.92171 6.76434 7.5075 6.76434H7.5C7.08579 6.76434 6.75 6.42855 6.75 6.01434V6.00684ZM9.75 5.25684C9.33579 5.25684 9 5.59262 9 6.00684V6.01434C9 6.42855 9.33579 6.76434 9.75 6.76434H9.7575C10.1717 6.76434 10.5075 6.42855 10.5075 6.01434V6.00684C10.5075 5.59262 10.1717 5.25684 9.7575 5.25684H9.75Z" fill="black"/>
</svg>
