<svg width="24" height="24" viewBox="0 0 24 24" fill="none" xmlns="http://www.w3.org/2000/svg">
<path fill-rule="evenodd" clip-rule="evenodd" d="M12 6.75684C12 3.85734 14.3505 1.50684 17.25 1.50684C17.7791 1.50684 18.2913 1.58535 18.7747 1.73188C19.027 1.80834 19.2206 2.01163 19.2847 2.26732C19.3488 2.52301 19.2739 2.79358 19.0875 2.97997L15.7688 6.29867C15.8305 6.77425 16.0438 7.23265 16.409 7.59783C16.7742 7.963 17.2326 8.17631 17.7082 8.238L21.0269 4.91931C21.2133 4.73291 21.4838 4.65806 21.7395 4.72214C21.9952 4.78622 22.1985 4.97982 22.275 5.23209C22.4215 5.71554 22.5 6.2277 22.5 6.75684C22.5 9.65633 20.1495 12.0068 17.25 12.0068C17.0995 12.0068 16.9503 12.0005 16.8027 11.988C15.7855 11.902 14.9338 12.0885 14.4944 12.622L7.34327 21.3055C6.71684 22.0662 5.78308 22.5068 4.79769 22.5068C2.97642 22.5068 1.5 21.0304 1.5 19.2092C1.5 18.2238 1.94067 17.29 2.70132 16.6636L11.3849 9.51241C11.9184 9.07306 12.1048 8.22136 12.0188 7.20412C12.0064 7.05652 12 6.90733 12 6.75684ZM4.11723 19.1319C4.11723 18.7177 4.45302 18.3819 4.86723 18.3819H4.87473C5.28895 18.3819 5.62473 18.7177 5.62473 19.1319V19.1394C5.62473 19.5536 5.28895 19.8894 4.87473 19.8894H4.86723C4.45302 19.8894 4.11723 19.5536 4.11723 19.1394V19.1319Z" fill="black"/>
</svg>
