<svg width="24" height="24" viewBox="0 0 24 24" fill="none" xmlns="http://www.w3.org/2000/svg">
<path fill-rule="evenodd" clip-rule="evenodd" d="M12 6.75684C12 3.85734 14.3505 1.50684 17.25 1.50684C17.7791 1.50684 18.2913 1.58535 18.7747 1.73188C19.027 1.80834 19.2206 2.01163 19.2847 2.26732C19.3488 2.52301 19.2739 2.79358 19.0875 2.97997L15.7688 6.29867C15.8305 6.77425 16.0438 7.23265 16.409 7.59783C16.7742 7.963 17.2326 8.17631 17.7082 8.238L21.0269 4.91931C21.2133 4.73291 21.4838 4.65806 21.7395 4.72214C21.9952 4.78622 22.1985 4.97982 22.275 5.23209C22.4215 5.71554 22.5 6.2277 22.5 6.75684C22.5 9.65633 20.1495 12.0068 17.25 12.0068C17.0995 12.0068 16.9503 12.0005 16.8027 11.988C15.7855 11.902 14.9338 12.0885 14.4944 12.622L7.34327 21.3055C6.71684 22.0662 5.78308 22.5068 4.79769 22.5068C2.97642 22.5068 1.5 21.0304 1.5 19.2092C1.5 18.2238 1.94067 17.29 2.70132 16.6636L11.3849 9.51241C11.9184 9.07306 12.1048 8.22136 12.0188 7.20412C12.0064 7.05652 12 6.90733 12 6.75684ZM4.11723 19.1319C4.11723 18.7177 4.45302 18.3819 4.86723 18.3819H4.87473C5.28895 18.3819 5.62473 18.7177 5.62473 19.1319V19.1394C5.62473 19.5536 5.28895 19.8894 4.87473 19.8894H4.86723C4.45302 19.8894 4.11723 19.5536 4.11723 19.1394V19.1319Z" fill="black"/>
<path d="M10.076 8.64715L7.87502 6.44619V4.88185C7.87502 4.61841 7.73679 4.37428 7.51089 4.23873L3.76089 1.98873C3.46578 1.81167 3.08804 1.85817 2.84469 2.10152L2.09469 2.85152C1.85133 3.09487 1.80483 3.47262 1.9819 3.76772L4.2319 7.51772C4.36744 7.74363 4.61157 7.88185 4.87502 7.88185H6.43936L8.50138 9.94387L10.076 8.64715Z" fill="black"/>
<path fill-rule="evenodd" clip-rule="evenodd" d="M12.5559 17.3355L16.7386 21.5183C18.0567 22.8363 20.1936 22.8363 21.5116 21.5183C22.8296 20.2002 22.8296 18.0633 21.5116 16.7453L18.206 13.4396C17.8937 13.4839 17.5746 13.5068 17.2501 13.5068C17.0574 13.5068 16.866 13.4987 16.6765 13.4826C16.2822 13.4493 15.994 13.4765 15.8089 13.5245C15.7053 13.5514 15.6574 13.5781 15.6419 13.5883L12.5559 17.3355ZM15.9698 15.9765C16.2627 15.6836 16.7375 15.6836 17.0304 15.9765L18.9054 17.8515C19.1983 18.1444 19.1983 18.6193 18.9054 18.9122C18.6125 19.2051 18.1377 19.2051 17.8448 18.9122L15.9698 17.0372C15.6769 16.7443 15.6769 16.2694 15.9698 15.9765Z" fill="black"/>
</svg>
